<?xml version="1.0" encoding="UTF-8"?>
<svg xmlns="http://www.w3.org/2000/svg" xmlns:xlink="http://www.w3.org/1999/xlink" width="48px" height="48px" viewBox="0 0 48 48" version="1.1">
<g id="surface1">
<path style=" stroke:none;fill-rule:nonzero;fill:rgb(32.941176%,75.294118%,92.156863%);fill-opacity:1;" d="M 48 24 C 48 37.253906 37.253906 48 24 48 C 10.746094 48 0 37.253906 0 24 C 0 10.746094 10.746094 0 24 0 C 37.253906 0 48 10.746094 48 24 Z M 48 24 "/>
<path style=" stroke:none;fill-rule:nonzero;fill:rgb(51.764706%,85.882353%,100%);fill-opacity:1;" d="M 7.066406 41.007812 C 11.414062 45.316406 17.386719 48 24 48 C 30.613281 48 36.585938 45.316406 40.933594 41.007812 Z M 7.066406 41.007812 "/>
<path style=" stroke:none;fill-rule:nonzero;fill:rgb(100%,100%,100%);fill-opacity:1;" d="M 20.296875 34.847656 L 27.703125 34.847656 L 27.703125 38.777344 L 20.296875 38.777344 Z M 20.296875 34.847656 "/>
<path style=" stroke:none;fill-rule:nonzero;fill:rgb(90.196078%,91.372549%,93.333333%);fill-opacity:1;" d="M 20.296875 34.847656 L 27.703125 34.847656 L 27.703125 35.714844 L 20.296875 35.714844 Z M 20.296875 34.847656 "/>
<path style=" stroke:none;fill-rule:nonzero;fill:rgb(90.196078%,91.372549%,93.333333%);fill-opacity:1;" d="M 30.878906 41.007812 L 17.121094 41.007812 C 17.121094 39.761719 18.140625 38.738281 19.390625 38.738281 L 28.609375 38.738281 C 29.859375 38.777344 30.878906 39.761719 30.878906 41.007812 Z M 30.878906 41.007812 "/>
<path style=" stroke:none;fill-rule:nonzero;fill:rgb(19.607843%,29.019608%,36.862745%);fill-opacity:1;" d="M 38.738281 34.847656 L 9.261719 34.847656 C 8.351562 34.847656 7.597656 34.089844 7.597656 33.183594 L 7.597656 12.925781 C 7.597656 12.019531 8.351562 11.261719 9.261719 11.261719 L 38.738281 11.261719 C 39.648438 11.261719 40.402344 12.019531 40.402344 12.925781 L 40.402344 33.222656 C 40.402344 34.089844 39.648438 34.847656 38.738281 34.847656 Z M 38.738281 34.847656 "/>
<path style=" stroke:none;fill-rule:nonzero;fill:rgb(100%,100%,100%);fill-opacity:1;" d="M 7.597656 31.558594 L 7.597656 33.222656 C 7.597656 34.128906 8.316406 34.847656 9.222656 34.847656 L 38.738281 34.847656 C 39.648438 34.847656 40.367188 34.128906 40.367188 33.222656 L 40.367188 31.558594 Z M 7.597656 31.558594 "/>
<path style=" stroke:none;fill-rule:nonzero;fill:rgb(100%,100%,100%);fill-opacity:1;" d="M 8.84375 12.433594 L 39.195312 12.433594 L 39.195312 30.160156 L 8.84375 30.160156 Z M 8.84375 12.433594 "/>
<path style=" stroke:none;fill-rule:nonzero;fill:rgb(100%,43.921569%,34.509804%);fill-opacity:1;" d="M 38.476562 33.183594 C 38.476562 33.601562 38.136719 33.941406 37.71875 33.941406 C 37.300781 33.941406 36.964844 33.601562 36.964844 33.183594 C 36.964844 32.765625 37.300781 32.429688 37.71875 32.429688 C 38.136719 32.429688 38.476562 32.765625 38.476562 33.183594 Z M 38.476562 33.183594 "/>
<path style=" stroke:none;fill-rule:nonzero;fill:rgb(29.803922%,85.882353%,76.862745%);fill-opacity:1;" d="M 36.359375 33.183594 C 36.359375 33.601562 36.019531 33.941406 35.601562 33.941406 C 35.1875 33.941406 34.847656 33.601562 34.847656 33.183594 C 34.847656 32.765625 35.1875 32.429688 35.601562 32.429688 C 36.019531 32.429688 36.359375 32.765625 36.359375 33.183594 Z M 36.359375 33.183594 "/>
<path style=" stroke:none;fill-rule:nonzero;fill:rgb(32.941176%,75.294118%,92.156863%);fill-opacity:1;" d="M 34.242188 33.183594 C 34.242188 33.601562 33.902344 33.941406 33.488281 33.941406 C 33.070312 33.941406 32.730469 33.601562 32.730469 33.183594 C 32.730469 32.765625 33.070312 32.429688 33.488281 32.429688 C 33.902344 32.429688 34.242188 32.765625 34.242188 33.183594 Z M 34.242188 33.183594 "/>
<path style=" stroke:none;fill-rule:nonzero;fill:rgb(67.45098%,70.196078%,72.941176%);fill-opacity:1;" d="M 12.019531 17.460938 L 15.683594 17.460938 L 15.683594 27.929688 L 12.019531 27.929688 Z M 12.019531 17.460938 "/>
<path style=" stroke:none;fill-rule:nonzero;fill:rgb(29.803922%,85.882353%,76.862745%);fill-opacity:1;" d="M 17.082031 21.996094 L 20.75 21.996094 L 20.75 27.96875 L 17.082031 27.96875 Z M 17.082031 21.996094 "/>
<path style=" stroke:none;fill-rule:nonzero;fill:rgb(100%,81.568627%,35.686275%);fill-opacity:1;" d="M 22.148438 19.199219 L 25.8125 19.199219 L 25.8125 27.929688 L 22.148438 27.929688 Z M 22.148438 19.199219 "/>
<path style=" stroke:none;fill-rule:nonzero;fill:rgb(51.764706%,85.882353%,100%);fill-opacity:1;" d="M 27.25 14.4375 L 30.917969 14.4375 L 30.917969 27.929688 L 27.25 27.929688 Z M 27.25 14.4375 "/>
<path style=" stroke:none;fill-rule:nonzero;fill:rgb(100%,43.921569%,34.509804%);fill-opacity:1;" d="M 32.316406 24.871094 L 35.980469 24.871094 L 35.980469 27.929688 L 32.316406 27.929688 Z M 32.316406 24.871094 "/>
</g>
</svg>
