<?xml version="1.0" encoding="UTF-8"?>
<svg xmlns="http://www.w3.org/2000/svg" xmlns:xlink="http://www.w3.org/1999/xlink" width="48px" height="48px" viewBox="0 0 48 48" version="1.1">
<g id="surface1">
<path style=" stroke:none;fill-rule:evenodd;fill:rgb(0%,0%,0%);fill-opacity:1;" d="M 35.460938 27.664062 C 38.175781 27.664062 40.632812 28.660156 42.417969 30.261719 C 44.203125 31.871094 45.296875 34.082031 45.296875 36.539062 C 45.296875 38.328125 44.703125 40 43.695312 41.394531 L 47.949219 45.578125 L 45.015625 48 L 40.910156 43.925781 C 39.351562 44.863281 37.480469 45.410156 35.464844 45.410156 C 32.753906 45.410156 30.292969 44.414062 28.515625 42.8125 C 26.730469 41.203125 25.636719 38.992188 25.636719 36.539062 C 25.636719 34.089844 26.738281 31.871094 28.515625 30.261719 C 30.289062 28.652344 32.742188 27.664062 35.460938 27.664062 Z M 2.550781 15.960938 L 2.550781 34.355469 C 2.550781 34.460938 2.59375 34.558594 2.667969 34.625 C 2.742188 34.691406 2.847656 34.734375 2.96875 34.734375 L 21.375 34.734375 C 22.644531 34.851562 22.683594 36.832031 21.375 37.003906 L 9.59375 37.003906 L 9.59375 41.222656 C 9.59375 41.332031 9.636719 41.425781 9.714844 41.492188 C 9.789062 41.558594 9.894531 41.597656 10.015625 41.597656 L 21.382812 41.597656 C 22.300781 41.691406 22.597656 43.574219 21.382812 43.867188 L 10.027344 43.867188 C 9.222656 43.867188 8.476562 43.570312 7.957031 43.085938 C 7.421875 42.601562 7.09375 41.945312 7.09375 41.21875 L 7.09375 37 L 2.980469 37 C 2.175781 37 1.429688 36.703125 0.910156 36.21875 C 0.375 35.734375 0.046875 35.078125 0.046875 34.351562 L 0.046875 2.648438 C 0.0507812 1.921875 0.378906 1.25 0.914062 0.78125 C 1.453125 0.296875 2.179688 0 2.984375 0 L 33.855469 0 C 34.660156 0 35.40625 0.296875 35.925781 0.777344 C 36.460938 1.261719 36.785156 1.921875 36.785156 2.644531 L 36.785156 6.863281 L 40.898438 6.863281 C 41.703125 6.863281 42.449219 7.160156 42.96875 7.640625 C 43.503906 8.125 43.832031 8.785156 43.832031 9.507812 L 43.832031 23.972656 C 43.746094 24.800781 41.492188 24.8125 41.300781 23.972656 L 41.300781 9.515625 C 41.300781 9.40625 41.257812 9.3125 41.183594 9.246094 C 41.109375 9.179688 41.007812 9.136719 40.886719 9.136719 L 36.773438 9.136719 L 36.773438 23.976562 C 36.554688 24.726562 34.679688 24.839844 34.257812 23.976562 L 34.257812 15.960938 Z M 2.550781 13.871094 L 34.257812 13.871094 L 34.257812 2.648438 C 34.257812 2.539062 34.214844 2.445312 34.136719 2.378906 C 34.0625 2.3125 33.960938 2.269531 33.839844 2.269531 L 2.96875 2.269531 C 2.847656 2.269531 2.742188 2.308594 2.667969 2.378906 C 2.59375 2.445312 2.550781 2.539062 2.550781 2.648438 Z M 16.914062 8.414062 L 18.957031 8.414062 C 19.066406 8.414062 19.140625 8.480469 19.140625 8.578125 L 19.140625 12.664062 C 19.140625 12.761719 19.066406 12.828125 18.957031 12.828125 L 16.914062 12.828125 C 16.804688 12.828125 16.730469 12.761719 16.730469 12.664062 L 16.730469 8.578125 C 16.730469 8.515625 16.804688 8.414062 16.914062 8.414062 Z M 26.980469 8.414062 L 29.027344 8.414062 C 29.132812 8.414062 29.207031 8.480469 29.207031 8.578125 L 29.207031 12.664062 C 29.207031 12.761719 29.132812 12.828125 29.027344 12.828125 L 26.980469 12.828125 C 26.875 12.828125 26.800781 12.761719 26.800781 12.664062 L 26.800781 8.578125 C 26.800781 8.515625 26.875 8.414062 26.980469 8.414062 Z M 21.949219 4.957031 L 23.992188 4.957031 C 24.105469 4.957031 24.171875 5.023438 24.171875 5.121094 L 24.171875 12.695312 C 24.171875 12.792969 24.097656 12.859375 23.992188 12.859375 L 21.949219 12.859375 C 21.839844 12.859375 21.765625 12.792969 21.765625 12.695312 L 21.765625 5.121094 C 21.765625 5.023438 21.839844 4.957031 21.949219 4.957031 Z M 6.851562 6.207031 L 8.894531 6.207031 C 9 6.207031 9.074219 6.273438 9.074219 6.371094 L 9.074219 12.695312 C 9.074219 12.792969 9 12.859375 8.894531 12.859375 L 6.851562 12.859375 C 6.742188 12.859375 6.667969 12.792969 6.667969 12.695312 L 6.667969 6.375 C 6.632812 6.273438 6.742188 6.207031 6.851562 6.207031 Z M 11.878906 4.957031 L 13.921875 4.957031 C 14.03125 4.957031 14.105469 5.023438 14.105469 5.121094 L 14.105469 12.695312 C 14.105469 12.792969 14.03125 12.859375 13.921875 12.859375 L 11.878906 12.859375 C 11.773438 12.859375 11.699219 12.792969 11.699219 12.695312 L 11.699219 5.121094 C 11.699219 5.023438 11.773438 4.957031 11.878906 4.957031 Z M 18.527344 26.242188 L 24.222656 26.332031 C 24.222656 28.175781 23.214844 29.867188 21.542969 30.894531 Z M 18.21875 24.671875 L 18.152344 18.6875 L 18.152344 18.292969 L 18.589844 18.324219 C 19.125 18.355469 19.664062 18.445312 20.164062 18.566406 C 20.667969 18.6875 21.132812 18.867188 21.605469 19.078125 C 23.917969 20.167969 25.523438 22.34375 25.65625 24.820312 L 25.691406 25.214844 L 25.253906 25.214844 L 18.660156 25.035156 L 18.289062 25.035156 Z M 18.953125 19.046875 L 19.019531 24.308594 L 24.8125 24.460938 C 24.578125 22.40625 23.171875 20.621094 21.230469 19.6875 C 20.828125 19.503906 20.394531 19.351562 19.957031 19.230469 C 19.589844 19.167969 19.285156 19.109375 18.953125 19.046875 Z M 16.621094 25.707031 L 19.871094 30.785156 C 18.867188 31.300781 17.761719 31.570312 16.621094 31.570312 C 13.035156 31.570312 10.121094 28.941406 10.121094 25.703125 C 10.121094 22.558594 12.871094 19.960938 16.351562 19.839844 Z M 40.691406 31.816406 C 39.351562 30.609375 37.503906 29.859375 35.460938 29.859375 C 33.421875 29.859375 31.570312 30.609375 30.234375 31.816406 C 28.894531 33.023438 28.066406 34.691406 28.066406 36.535156 C 28.066406 38.375 28.894531 40.046875 30.234375 41.253906 C 31.570312 42.460938 33.417969 43.210938 35.460938 43.210938 C 37.5 43.210938 39.351562 42.460938 40.691406 41.253906 C 42.027344 40.046875 42.859375 38.375 42.859375 36.535156 C 42.859375 34.695312 42.027344 33.023438 40.691406 31.816406 Z M 40.691406 31.816406 "/>
</g>
</svg>
