<?xml version="1.0" encoding="UTF-8"?>
<svg xmlns="http://www.w3.org/2000/svg" xmlns:xlink="http://www.w3.org/1999/xlink" width="48px" height="48px" viewBox="0 0 48 48" version="1.1">
<g id="surface1">
<path style=" stroke:none;fill-rule:nonzero;fill:rgb(92.54902%,93.72549%,94.509804%);fill-opacity:1;" d="M 46.5 40.5 L 25.5 40.5 C 24.671875 40.5 24 39.828125 24 39 C 24 38.171875 24 9.828125 24 9 C 24 8.171875 24.671875 7.5 25.5 7.5 L 46.5 7.5 C 47.328125 7.5 48 8.171875 48 9 L 48 39 C 48 39.828125 47.328125 40.5 46.5 40.5 Z M 46.5 40.5 "/>
<path style=" stroke:none;fill-rule:nonzero;fill:rgb(21.960784%,55.686275%,23.529412%);fill-opacity:1;" d="M 31.5 16.5 L 25.5 16.5 C 24.671875 16.5 24 15.828125 24 15 C 24 14.171875 24.671875 13.5 25.5 13.5 L 31.5 13.5 C 32.328125 13.5 33 14.171875 33 15 C 33 15.828125 32.328125 16.5 31.5 16.5 Z M 31.5 16.5 "/>
<path style=" stroke:none;fill-rule:nonzero;fill:rgb(21.960784%,55.686275%,23.529412%);fill-opacity:1;" d="M 31.5 22.5 L 25.5 22.5 C 24.671875 22.5 24 21.828125 24 21 C 24 20.171875 24.671875 19.5 25.5 19.5 L 31.5 19.5 C 32.328125 19.5 33 20.171875 33 21 C 33 21.828125 32.328125 22.5 31.5 22.5 Z M 31.5 22.5 "/>
<path style=" stroke:none;fill-rule:nonzero;fill:rgb(21.960784%,55.686275%,23.529412%);fill-opacity:1;" d="M 31.5 28.5 L 25.5 28.5 C 24.671875 28.5 24 27.828125 24 27 C 24 26.171875 24.671875 25.5 25.5 25.5 L 31.5 25.5 C 32.328125 25.5 33 26.171875 33 27 C 33 27.828125 32.328125 28.5 31.5 28.5 Z M 31.5 28.5 "/>
<path style=" stroke:none;fill-rule:nonzero;fill:rgb(21.960784%,55.686275%,23.529412%);fill-opacity:1;" d="M 31.5 34.5 L 25.5 34.5 C 24.671875 34.5 24 33.828125 24 33 C 24 32.171875 24.671875 31.5 25.5 31.5 L 31.5 31.5 C 32.328125 31.5 33 32.171875 33 33 C 33 33.828125 32.328125 34.5 31.5 34.5 Z M 31.5 34.5 "/>
<path style=" stroke:none;fill-rule:nonzero;fill:rgb(21.960784%,55.686275%,23.529412%);fill-opacity:1;" d="M 40.5 16.5 L 37.5 16.5 C 36.671875 16.5 36 15.828125 36 15 C 36 14.171875 36.671875 13.5 37.5 13.5 L 40.5 13.5 C 41.328125 13.5 42 14.171875 42 15 C 42 15.828125 41.328125 16.5 40.5 16.5 Z M 40.5 16.5 "/>
<path style=" stroke:none;fill-rule:nonzero;fill:rgb(21.960784%,55.686275%,23.529412%);fill-opacity:1;" d="M 40.5 22.5 L 37.5 22.5 C 36.671875 22.5 36 21.828125 36 21 C 36 20.171875 36.671875 19.5 37.5 19.5 L 40.5 19.5 C 41.328125 19.5 42 20.171875 42 21 C 42 21.828125 41.328125 22.5 40.5 22.5 Z M 40.5 22.5 "/>
<path style=" stroke:none;fill-rule:nonzero;fill:rgb(21.960784%,55.686275%,23.529412%);fill-opacity:1;" d="M 40.5 28.5 L 37.5 28.5 C 36.671875 28.5 36 27.828125 36 27 C 36 26.171875 36.671875 25.5 37.5 25.5 L 40.5 25.5 C 41.328125 25.5 42 26.171875 42 27 C 42 27.828125 41.328125 28.5 40.5 28.5 Z M 40.5 28.5 "/>
<path style=" stroke:none;fill-rule:nonzero;fill:rgb(21.960784%,55.686275%,23.529412%);fill-opacity:1;" d="M 40.5 34.5 L 37.5 34.5 C 36.671875 34.5 36 33.828125 36 33 C 36 32.171875 36.671875 31.5 37.5 31.5 L 40.5 31.5 C 41.328125 31.5 42 32.171875 42 33 C 42 33.828125 41.328125 34.5 40.5 34.5 Z M 40.5 34.5 "/>
<path style=" stroke:none;fill-rule:nonzero;fill:rgb(18.039216%,49.019608%,19.607843%);fill-opacity:1;" d="M 26.457031 1.847656 C 26.113281 1.5625 25.65625 1.4375 25.222656 1.527344 L 1.222656 6.027344 C 0.511719 6.160156 0 6.777344 0 7.5 L 0 40.5 C 0 41.222656 0.511719 41.84375 1.222656 41.972656 L 25.222656 46.472656 C 25.3125 46.492188 25.40625 46.5 25.5 46.5 C 25.847656 46.5 26.1875 46.382812 26.457031 46.15625 C 26.800781 45.871094 27 45.445312 27 45 L 27 3 C 27 2.554688 26.800781 2.132812 26.457031 1.847656 Z M 26.457031 1.847656 "/>
<path style=" stroke:none;fill-rule:nonzero;fill:rgb(98.039216%,98.039216%,98.039216%);fill-opacity:1;" d="M 20.628906 29.015625 L 15.886719 23.59375 L 20.683594 17.425781 C 21.191406 16.769531 21.070312 15.828125 20.421875 15.320312 C 19.769531 14.808594 18.828125 14.929688 18.316406 15.578125 L 13.871094 21.292969 L 10.128906 17.015625 C 9.578125 16.382812 8.632812 16.328125 8.011719 16.871094 C 7.390625 17.417969 7.324219 18.367188 7.871094 18.988281 L 11.996094 23.703125 L 7.816406 29.078125 C 7.304688 29.734375 7.425781 30.675781 8.074219 31.1875 C 8.351562 31.398438 8.679688 31.5 9 31.5 C 9.445312 31.5 9.886719 31.304688 10.183594 30.921875 L 14.011719 26.003906 L 18.371094 30.984375 C 18.667969 31.328125 19.082031 31.5 19.5 31.5 C 19.851562 31.5 20.203125 31.378906 20.488281 31.128906 C 21.109375 30.582031 21.175781 29.636719 20.628906 29.015625 Z M 20.628906 29.015625 "/>
</g>
</svg>
