<?xml version="1.0" encoding="UTF-8"?>
<svg xmlns="http://www.w3.org/2000/svg" xmlns:xlink="http://www.w3.org/1999/xlink" width="48px" height="48px" viewBox="0 0 48 48" version="1.1">
<g id="surface1">
<path style=" stroke:none;fill-rule:nonzero;fill:rgb(0.392157%,0.392157%,0.392157%);fill-opacity:1;" d="M 16.664062 37.734375 C 15.078125 36.488281 13.386719 35.292969 12.230469 33.609375 C 9.796875 30.636719 7.921875 27.195312 6.640625 23.578125 C 5.863281 21.230469 5.601562 18.707031 4.601562 16.449219 C 3.558594 14.804688 4.78125 13.011719 6.578125 12.492188 C 7.375 12.335938 8.785156 11.578125 7.085938 12.125 C 5.566406 13.242188 5.417969 11.109375 6.980469 10.972656 C 8.042969 10.828125 8.4375 9.960938 8.074219 9.171875 C 6.929688 8.425781 10.847656 7.605469 8.875 6.492188 C 6.820312 4.273438 11.75 3.847656 10.535156 6.367188 C 10.246094 8.300781 13.976562 6.011719 13.109375 8.246094 C 13.992188 9.320312 16.410156 8.488281 16.347656 9.996094 C 17.628906 10.085938 18.070312 11.164062 19.269531 11.246094 C 20.519531 11.808594 22.78125 12.253906 23.203125 13.660156 C 21.96875 14.640625 19.097656 11.636719 18.964844 14.351562 C 19.339844 18.359375 19.242188 22.488281 20.707031 26.304688 C 21.402344 28.617188 23.082031 30.433594 24.601562 32.234375 C 26.054688 33.996094 28.019531 35.238281 30.03125 36.285156 C 31.789062 37.113281 33.6875 37.664062 35.605469 38.011719 C 36.382812 37.414062 37.757812 35.203125 38.96875 36.136719 C 39.03125 37.183594 36.5625 38.324219 38.855469 38.210938 C 40.199219 37.808594 41.132812 39.25 42.242188 37.945312 C 43.265625 39.15625 46.488281 37.171875 45.761719 39.644531 C 44.777344 40.277344 43.347656 39.894531 42.359375 40.769531 C 40.734375 39.960938 39.445312 41.492188 37.648438 41.300781 C 35.65625 41.660156 33.625 41.804688 31.601562 41.804688 C 28.28125 41.542969 24.890625 41.433594 21.738281 40.277344 C 19.960938 39.761719 18.226562 38.75 16.664062 37.734375 Z M 19.464844 38.953125 C 21.203125 39.703125 22.902344 40.492188 24.800781 40.734375 C 27.820312 41.152344 30.941406 41.796875 33.972656 41.207031 C 32.597656 40.589844 31.179688 41.449219 29.816406 40.765625 C 28.175781 41.117188 26.417969 40.675781 24.753906 40.457031 C 22.859375 39.613281 20.816406 39.035156 19.042969 37.9375 C 16.828125 37.128906 20.191406 38.976562 20.785156 39.128906 C 22.171875 39.914062 19.265625 38.722656 18.851562 38.394531 C 17.691406 37.742188 17.542969 37.882812 18.734375 38.542969 C 18.976562 38.679688 19.214844 38.832031 19.464844 38.953125 Z M 16.164062 36.613281 C 17.847656 37.238281 16.15625 35.429688 15.386719 35.535156 C 15.046875 34.941406 14.082031 34.566406 14.761719 34.25 C 13.539062 34.671875 13.476562 32.636719 12.902344 32.925781 C 11.609375 32.515625 12.402344 31.070312 10.859375 30.179688 C 10.722656 29.242188 9.328125 28.433594 8.886719 27.019531 C 8.691406 26.296875 7.316406 24.222656 8.160156 26.152344 C 8.878906 28.011719 10.144531 29.605469 11.199219 31.195312 C 12.015625 32.710938 12.984375 34.292969 14.46875 35.238281 C 14.96875 35.726562 15.453125 36.464844 16.164062 36.613281 Z M 11.3125 31.292969 C 11.375 31.039062 11.621094 31.839844 11.3125 31.292969 Z M 18.175781 37.359375 C 18.550781 37.195312 17.640625 37.152344 18.175781 37.359375 Z M 19.089844 37.695312 C 18.996094 37.234375 18.675781 37.953125 19.089844 37.695312 Z M 20.234375 38.171875 C 20.777344 37.652344 19.394531 37.84375 20.234375 38.171875 Z M 22.191406 39.261719 C 22.527344 38.773438 21.136719 39.078125 22.191406 39.261719 Z M 18.429688 36.640625 C 19.273438 36.09375 17.339844 36.632812 18.429688 36.640625 Z M 19.289062 37.070312 C 19.265625 36.78125 18.984375 37.195312 19.289062 37.070312 Z M 23.578125 39.742188 C 24.265625 40.175781 27.601562 40.695312 25.511719 39.921875 C 25.164062 39.996094 21.636719 38.925781 23.578125 39.742188 Z M 16.769531 34.445312 C 16.703125 34.15625 15.703125 34.125 16.769531 34.445312 Z M 18.765625 35.605469 C 19.285156 35.246094 17.6875 35.328125 18.765625 35.605469 Z M 20.445312 36.636719 C 21.1875 36.355469 19.234375 36.355469 20.445312 36.636719 Z M 15.957031 33.558594 C 16.765625 34.175781 19.21875 33.636719 17.195312 33.1875 C 16.273438 32.695312 14.199219 32.363281 15.609375 33.484375 Z M 21.582031 36.992188 C 21.917969 36.421875 20.167969 36.664062 21.582031 36.992188 Z M 19.871094 35.632812 C 21.847656 36.191406 18.210938 34.378906 19.382812 35.425781 L 19.644531 35.546875 Z M 23.296875 37.613281 C 25.171875 37.632812 21.609375 37.359375 23.296875 37.613281 Z M 15.234375 32.476562 C 15.164062 32.125 14.773438 32.503906 15.234375 32.476562 Z M 26.464844 39.390625 C 26.515625 38.761719 25.855469 39.859375 26.464844 39.390625 Z M 18.429688 34.433594 C 18.320312 34.101562 17.847656 34.417969 18.429688 34.433594 Z M 15.417969 32.257812 C 16.488281 32.195312 13.941406 31.785156 15.417969 32.257812 Z M 11.839844 29.949219 C 11.703125 29.429688 10.667969 29.019531 11.839844 29.949219 Z M 21.226562 35.902344 C 21.03125 35.675781 21.132812 35.953125 21.226562 35.902344 Z M 27.066406 39.488281 C 27.046875 39.144531 26.75 39.617188 27.066406 39.488281 Z M 20.707031 35.371094 C 20.8125 34.925781 19.792969 35.234375 20.707031 35.371094 Z M 16.359375 32.609375 C 17.15625 32.523438 15.074219 32.070312 16.359375 32.609375 Z M 23.71875 37.183594 C 24.964844 36.691406 22.503906 36.945312 23.71875 37.183594 Z M 19.890625 34.585938 C 21.328125 34.769531 18.179688 33.609375 19.574219 34.480469 Z M 24.882812 37.65625 C 26.222656 36.855469 25.78125 39.535156 27.15625 37.882812 C 28.515625 36.890625 25.984375 39.109375 27.65625 38.058594 C 28.867188 37.25 30.652344 38.441406 31.78125 38.832031 C 32.589844 38.789062 33.382812 39.53125 34.214844 39.082031 C 35.816406 38.652344 31.078125 38.441406 32.320312 37.675781 C 30.855469 38.105469 29.769531 37.167969 29.050781 36.230469 C 27.40625 35.851562 25.503906 35.011719 24.683594 33.550781 C 24.347656 33.003906 25.167969 33.628906 24.394531 32.734375 C 23.402344 31.851562 22.910156 30.851562 22.246094 29.777344 C 21.449219 29.355469 21.355469 28.105469 21.277344 29.738281 C 21.285156 28.710938 20.316406 28.015625 20.082031 28.304688 C 20.078125 27.316406 21.117188 27.808594 20.390625 27.078125 C 20.230469 26.050781 19.71875 24.984375 19.5625 23.824219 C 19.324219 23.265625 19.53125 22.070312 18.742188 23.332031 C 18.457031 24.671875 18.648438 21.691406 19.09375 22.671875 C 19.679688 21.671875 18.886719 21.789062 18.851562 21.925781 C 19.234375 21.078125 19.089844 19.878906 18.75 20.335938 C 18.953125 19.441406 19.074219 17.035156 18.445312 17.464844 C 18.824219 16.527344 19.167969 13.171875 17.519531 14.453125 C 16.851562 14.464844 15.703125 14.691406 15.152344 14.964844 C 16.863281 15.90625 14.980469 15.308594 14.285156 15.15625 C 14.195312 16.03125 13.503906 15.652344 12.640625 15.660156 C 14.015625 15.828125 11.96875 17.066406 11.183594 16.585938 C 10.15625 17.078125 12.066406 18.300781 11.203125 18.679688 C 11.304688 19.25 9.628906 18.472656 9.761719 19.789062 C 8.765625 19.367188 9.625 21.347656 10.121094 20.679688 C 11.8125 21.140625 11.3125 22.183594 11.355469 23.175781 C 11.078125 23.753906 9.992188 21.816406 11.113281 21.90625 C 10.230469 20.472656 10.136719 21.390625 9.40625 22.054688 C 9.234375 22.101562 11.277344 23.003906 9.992188 23.449219 C 11.121094 23.625 11.15625 24.609375 11.386719 25.234375 C 12.0625 25.9375 11.925781 24.453125 12.734375 25.300781 C 12.222656 24.542969 10.015625 23.171875 11.789062 23.609375 C 11.777344 22.847656 11.46875 22.234375 12.015625 22.25 C 12.554688 21.273438 11.449219 24.65625 12.664062 23.414062 C 13 23.269531 13.082031 22.441406 13.6875 23.492188 C 14.566406 24.355469 14.007812 24.984375 12.765625 24.191406 C 12.984375 24.945312 14.421875 25.210938 14.152344 26.390625 C 14.4375 27.421875 14.839844 27.042969 15.1875 26.980469 C 15.460938 27.984375 15.613281 27.246094 15.628906 26.765625 C 16.882812 27.039062 16.589844 27.777344 16.980469 28.292969 C 17.84375 28.683594 15.746094 25.652344 17.226562 27.382812 C 18.789062 28.789062 17.8125 29.378906 16.414062 29.152344 C 17.296875 29.082031 17.582031 30.347656 18.691406 30.304688 C 19.699219 30.785156 20.386719 32.628906 18.644531 31.859375 C 18.042969 31.316406 15.902344 30.644531 17.652344 31.679688 C 19.265625 32.425781 20.542969 32.871094 22.097656 33.808594 C 23.207031 34.605469 23.691406 35.511719 24.113281 35.691406 C 23.179688 36.140625 21.296875 35.335938 22.695312 35.089844 C 21.820312 34.929688 20.84375 34.488281 21.679688 35.578125 C 22.386719 36.167969 24.195312 36.109375 24.519531 36.171875 C 24.246094 36.777344 23.773438 36.824219 24.53125 36.871094 C 23.6875 37.328125 24.800781 37.398438 24.882812 37.65625 Z M 23.15625 32.78125 C 22.640625 32.246094 22.511719 31.242188 23.066406 32.113281 C 23.347656 32.226562 23.976562 33.757812 23.15625 32.78125 Z M 28.777344 36.351562 C 29.097656 36.328125 28.785156 36.597656 28.777344 36.351562 Z M 22.347656 31.464844 C 22.324219 30.652344 22.53125 32.09375 22.347656 31.464844 Z M 21.789062 30.710938 C 21.140625 29.46875 22.601562 31.070312 21.789062 30.710938 Z M 15.015625 26.039062 C 15.394531 25.9375 15.203125 26.6875 15.015625 26.039062 Z M 20.402344 28.960938 C 20.636719 28.085938 20.675781 29.695312 20.402344 28.960938 Z M 16.597656 26.3125 C 16.332031 25.828125 17.160156 26.765625 16.597656 26.3125 Z M 19.863281 27.359375 C 19.253906 25.992188 20.296875 26.609375 20 27.585938 Z M 14.230469 23.605469 C 13.957031 23.15625 13.507812 21.835938 13.648438 21.433594 C 13.78125 22.089844 15.046875 24.257812 14.269531 22.332031 C 13.414062 20.71875 15.292969 22.855469 15.488281 23.257812 C 15.578125 23.660156 14.957031 23.148438 15.378906 24.085938 C 14.613281 23.015625 14.929688 24.679688 14.230469 23.605469 Z M 12.492188 22.40625 C 12.5625 21.359375 12.890625 23.121094 12.492188 22.40625 Z M 13.269531 22.675781 C 13.644531 21.886719 13.90625 23.773438 13.269531 22.675781 Z M 11.390625 21.21875 C 10.738281 20.574219 10.269531 19.980469 11.417969 20.816406 C 11.859375 20.835938 10.4375 19.464844 11.523438 20.382812 C 12.671875 20.589844 12.089844 22.261719 11.390625 21.21875 Z M 12.378906 21.191406 C 12.753906 20.820312 12.578125 21.558594 12.378906 21.191406 Z M 12.984375 21.386719 C 12.417969 20.316406 13.679688 21.835938 12.984375 21.386719 Z M 11.777344 20.230469 C 9.894531 18.554688 14.144531 21.109375 12.085938 20.542969 Z M 17.175781 23.367188 C 16.359375 22.878906 16.957031 19.921875 17.234375 21.945312 C 18.027344 21.691406 17.191406 22.988281 17.78125 22.976562 C 17.691406 23.792969 17.425781 24.089844 17.175781 23.367188 Z M 19.171875 24.546875 C 19.253906 23.65625 19.34375 25.15625 19.171875 24.546875 Z M 18.824219 24.203125 C 18.914062 23.824219 18.835938 24.652344 18.824219 24.203125 Z M 12.144531 19.679688 C 10.933594 18.011719 15.664062 21.371094 12.921875 20.105469 C 12.632812 20.023438 12.289062 20 12.144531 19.679688 Z M 15.992188 21.714844 C 15.878906 20.308594 16.25 21.949219 15.992188 21.714844 Z M 18.910156 23.589844 C 19.136719 22.789062 18.929688 24.121094 18.910156 23.589844 Z M 12.332031 19.042969 C 13.054688 18.890625 15.316406 20.304688 13.238281 19.449219 C 13.003906 19.1875 12.515625 19.304688 12.332031 19.042969 Z M 18.511719 22.121094 C 18.585938 20.679688 18.941406 21.261719 18.515625 22.328125 Z M 12.867188 18.539062 C 13.160156 18.109375 12.085938 16.597656 13.019531 17.996094 C 13.425781 18.316406 14.1875 18.53125 13.511719 18.667969 C 14.578125 19.605469 13.257812 18.921875 12.867188 18.539062 Z M 18.207031 21.671875 C 18.410156 20.03125 18.382812 22.632812 18.207031 21.671875 Z M 12.253906 17.027344 C 12.480469 16.929688 12.375 17.324219 12.253906 17.027344 Z M 13.644531 17.859375 C 14.007812 17.105469 14.308594 18.695312 13.644531 17.859375 Z M 17.574219 20.039062 C 17.574219 19.75 17.648438 20.460938 17.574219 20.039062 Z M 17.347656 19.539062 C 16.804688 18.191406 17.855469 20.25 17.347656 19.539062 Z M 17.015625 18.65625 C 16.921875 18.101562 17.324219 19.355469 17.015625 18.65625 Z M 17.558594 17.769531 C 17.183594 17.109375 18.03125 14.863281 18.125 16.261719 C 17.730469 17.34375 18.011719 17.953125 18.285156 16.496094 C 18.796875 15.347656 18.175781 18.753906 17.558594 17.769531 Z M 18.117188 14.429688 C 18.28125 14.230469 18.152344 14.671875 18.117188 14.429688 Z M 17.183594 32.851562 C 16.960938 32.65625 17.207031 32.972656 17.183594 32.851562 Z M 19.105469 33.824219 C 20.179688 34.101562 20.171875 33.660156 19.203125 33.527344 C 18.683594 33.046875 17.039062 32.53125 18.511719 33.46875 C 18.609375 33.710938 18.917969 33.703125 19.105469 33.824219 Z M 15.304688 31.296875 C 15.890625 31.738281 17.527344 32.542969 16.144531 31.464844 C 16.609375 30.925781 15.25 30.636719 15.703125 30.273438 C 14.554688 29.574219 14.796875 29.636719 15.601562 29.660156 C 14.222656 29.042969 15.796875 29.089844 15.722656 28.773438 C 15.191406 28.667969 13.085938 27.835938 14.324219 28.839844 C 13.066406 28.199219 14.023438 29.082031 13.640625 28.988281 C 12.351562 28.636719 14.789062 29.96875 13.441406 29.636719 C 14.179688 30.222656 15.425781 31.136719 13.75 30.253906 C 13.539062 30.574219 14.953125 31.058594 15.304688 31.296875 Z M 17.316406 32.457031 C 19.765625 33.242188 16.117188 31.488281 17.316406 32.457031 Z M 27.628906 38.699219 C 27.660156 38.210938 27.292969 39.117188 27.628906 38.699219 Z M 28.6875 39.144531 C 29.253906 38.597656 28.710938 40.019531 29.625 39.011719 C 29.636719 38.292969 29.597656 37.863281 28.574219 38.742188 C 28.292969 38.898438 28.167969 39.5625 28.6875 39.144531 Z M 11.867188 28.582031 C 11.691406 27.898438 10.648438 27.902344 11.867188 28.582031 Z M 12.996094 29.324219 C 12.578125 28.628906 11.496094 28.695312 12.996094 29.324219 Z M 19.4375 33.207031 C 20.066406 33.765625 22.324219 33.613281 20.199219 33.273438 C 19.886719 32.808594 18.203125 32.921875 19.4375 33.207031 Z M 28.285156 38.671875 C 29.25 37.859375 27.347656 39.035156 28.285156 38.671875 Z M 30.296875 40.054688 C 30.304688 39.796875 29.878906 40.167969 30.296875 40.054688 Z M 30.300781 39.691406 C 31.371094 38.554688 29.261719 39.757812 30.300781 39.691406 Z M 9.082031 26.253906 C 8.171875 24.953125 8.515625 24.367188 7.636719 23.300781 C 7.464844 22.488281 6.125 20.644531 6.941406 22.597656 C 7.6875 23.742188 7.910156 25.511719 9.082031 26.253906 Z M 29.960938 39.328125 C 31.933594 38.054688 29.15625 38.773438 29.960938 39.328125 Z M 31.464844 39.917969 C 32.457031 39.070312 30.84375 39.742188 31.464844 39.917969 Z M 11.53125 27.140625 C 11.816406 26.722656 10.804688 27.089844 11.53125 27.140625 Z M 31.15625 39.515625 C 32.109375 38.898438 30.933594 38.992188 30.984375 39.570312 Z M 18.1875 31.34375 C 18.152344 30.925781 17.679688 31.375 18.1875 31.34375 Z M 18.988281 31.804688 C 18.730469 31.285156 18.597656 31.882812 18.988281 31.804688 Z M 32.6875 39.929688 C 33.914062 39.046875 31.945312 39.761719 32.433594 40.097656 Z M 32.214844 39.703125 C 33.21875 38.867188 31.167969 40.078125 32.214844 39.703125 Z M 34.613281 41.296875 C 35.285156 40.851562 33.796875 41.15625 34.613281 41.296875 Z M 12.144531 26.839844 C 13.042969 27.042969 15.730469 29.046875 14.144531 26.976562 C 13.332031 26.738281 13.820312 24.75 12.988281 25.101562 C 13.546875 26.03125 13.449219 26.425781 12.277344 25.839844 C 10.8125 25.125 11.453125 26.195312 11.742188 26.488281 C 11.351562 26.582031 12.261719 26.832031 12.144531 26.839844 Z M 8.058594 23.609375 C 8.21875 22.945312 6.578125 19.953125 7.28125 22.109375 C 7.539062 22.5625 7.511719 23.417969 8.058594 23.609375 Z M 15.5625 28.238281 C 15.101562 27.851562 15.539062 28.179688 15.5625 28.238281 Z M 16.699219 28.503906 C 16.699219 27.796875 15.441406 28.214844 16.699219 28.503906 Z M 26.5625 34.71875 C 26.375 34.238281 25.820312 34.710938 26.5625 34.71875 Z M 27.035156 35.066406 C 26.964844 34.796875 26.765625 35.117188 27.035156 35.066406 Z M 30.945312 37.527344 C 31.320312 37.25 30.476562 37.492188 30.945312 37.527344 Z M 10.097656 24.132812 C 11.175781 23.714844 8.949219 23.835938 10.097656 24.132812 Z M 25.695312 33.957031 C 25.679688 33.257812 25.007812 34.128906 25.695312 33.957031 Z M 9.675781 23.140625 C 10.363281 22.910156 9.035156 22.988281 9.675781 23.140625 Z M 11.675781 24.113281 C 11.667969 23.882812 11.46875 24.199219 11.675781 24.113281 Z M 36.136719 39.109375 C 37.023438 38.929688 39.046875 39.5625 39.375 38.871094 C 38.296875 38.847656 35.644531 38.109375 35.519531 39.046875 L 35.757812 39.082031 Z M 12.316406 24.273438 C 12.332031 23.570312 11.765625 24.246094 12.316406 24.273438 Z M 7.046875 20.617188 C 6.804688 19.273438 6.136719 20.414062 7.046875 20.617188 Z M 8.300781 20.933594 C 8.316406 20.5 7.152344 20.546875 8.300781 20.933594 Z M 9.019531 21.285156 C 8.8125 21.121094 8.859375 21.5 9.019531 21.285156 Z M 13.542969 24.183594 C 13.753906 23.988281 13.035156 24.042969 13.542969 24.183594 Z M 8.542969 20.488281 C 8.417969 19.472656 7.085938 20.339844 8.542969 20.488281 Z M 5.964844 18.816406 C 5.929688 18.347656 5.714844 18.992188 5.964844 18.816406 Z M 6.347656 18.527344 C 6.285156 17.972656 6.019531 18.601562 6.347656 18.527344 Z M 8.46875 19.792969 C 9.363281 19.441406 6.835938 19.066406 8.285156 19.726562 Z M 36.8125 37.300781 C 37.386719 36.777344 36.085938 37.140625 36.8125 37.300781 Z M 40.238281 39.078125 C 40.464844 38.398438 39.660156 39.164062 40.238281 39.078125 Z M 8.679688 18.683594 C 8.777344 18.027344 7.972656 18.8125 8.679688 18.683594 Z M 5.671875 16.664062 C 5.507812 15.738281 5.53125 14.109375 7.078125 14.660156 C 5.015625 15.070312 8.511719 17.226562 8.070312 15.523438 C 8.941406 15.566406 9.769531 15.011719 9.316406 15.855469 C 11.027344 15.667969 12.214844 14.183594 13.867188 14.390625 C 15.15625 14.214844 16.5625 14.089844 17.953125 13.570312 C 19.089844 13.488281 20.191406 12.257812 19.566406 11.53125 C 18.011719 11.398438 16.378906 11.59375 14.664062 11.9375 C 12.757812 12.332031 11.023438 13.082031 9.101562 13.410156 C 7.226562 13.660156 9.476562 14.105469 8.941406 14.203125 C 7.960938 14.539062 10.105469 14.769531 8.8125 15.128906 C 8.015625 14.972656 7.179688 14.699219 7.523438 13.859375 C 5.726562 14.09375 4.148438 14.839844 5.570312 16.664062 Z M 9.996094 14.460938 C 10.417969 12.90625 12.25 15.734375 10.6875 14.667969 C 10.5 14.523438 10.191406 14.410156 9.996094 14.460938 Z M 10.078125 13.707031 C 10.6875 13.257812 10.402344 13.960938 10.078125 13.707031 Z M 10.851562 13.722656 C 10.910156 13.007812 12.617188 14.101562 11.132812 13.976562 Z M 11.90625 13.292969 C 12.292969 12.84375 12.019531 13.695312 11.90625 13.292969 Z M 12.175781 13.113281 C 12.816406 12.339844 15.808594 12.621094 13.621094 13.039062 C 13.035156 12.597656 12.585938 13.300781 12.175781 13.113281 Z M 16.082031 12.515625 C 15.984375 10.40625 18.027344 13.261719 16.082031 12.515625 Z M 17.195312 12.507812 C 17.597656 11.445312 18.769531 12.078125 17.382812 12.292969 C 17.410156 12.40625 17.339844 12.839844 17.195312 12.507812 Z M 8.246094 18.140625 C 9.457031 17.394531 6.960938 17.492188 8.246094 18.140625 Z M 9.140625 18.386719 C 9.566406 17.9375 8.21875 18.203125 9.140625 18.386719 Z M 6.503906 16.515625 C 7.195312 15.984375 5.683594 16.3125 6.503906 16.515625 Z M 42.257812 38.882812 C 42.277344 38.265625 41.730469 39.160156 42.257812 38.882812 Z M 38.625 36.40625 C 38.730469 35.691406 38.160156 36.464844 38.625 36.40625 Z M 43.261719 39.125 C 44.226562 39.128906 46.191406 38.824219 44.085938 38.824219 C 43.753906 38.871094 42.160156 38.863281 43.261719 39.125 Z M 9.929688 17.953125 C 10.714844 17.898438 11.15625 17.089844 9.777344 17.132812 C 7.640625 16.914062 11.660156 17.863281 9.503906 17.589844 C 9.214844 17.78125 9.910156 18.003906 9.929688 17.953125 Z M 10.621094 18.300781 C 10.539062 17.796875 10.375 18.566406 10.621094 18.300781 Z M 11.4375 16.117188 C 11.773438 15.699219 10.964844 16.003906 11.4375 16.117188 Z M 8.832031 11.765625 C 10.230469 11.292969 12.140625 10.757812 12.796875 12 C 12.128906 11.195312 12.527344 10.394531 13.164062 11.578125 C 14.058594 12.777344 14.507812 11.035156 13.921875 10.636719 C 14.585938 11.460938 15.34375 11.851562 14.371094 10.6875 C 15.429688 9.414062 12.246094 10.855469 11.523438 10.839844 C 11.179688 10.996094 7.929688 11.667969 8.832031 11.765625 Z M 9.652344 10.199219 C 10.453125 9.601562 12.410156 10.558594 11.152344 9.605469 C 11.027344 9.492188 8.394531 10.328125 9.652344 10.199219 Z M 12.558594 10.320312 C 13.492188 10.34375 12.15625 9.066406 13.265625 9.644531 C 13.082031 9.046875 11.972656 8.9375 11.429688 8.699219 C 11.121094 9.242188 12.050781 10.328125 12.558594 10.320312 Z M 10.164062 7.679688 C 10.484375 7.246094 9.597656 7.90625 10.164062 7.679688 Z M 11.347656 7.964844 C 12.851562 7.765625 10.964844 7.320312 11.042969 7.949219 Z M 9.132812 6.234375 C 8.074219 4.847656 11.121094 6.464844 10.046875 5.015625 C 9.140625 4.296875 8.273438 5.828125 9.132812 6.234375 Z M 22.710938 13.546875 C 23.195312 12.6875 20.707031 12.386719 22.382812 13.242188 C 22.542969 13.292969 22.503906 13.605469 22.710938 13.546875 Z M 22.710938 13.546875 "/>
</g>
</svg>
