<?xml version="1.0" encoding="UTF-8"?>
<svg xmlns="http://www.w3.org/2000/svg" xmlns:xlink="http://www.w3.org/1999/xlink" width="48px" height="48px" viewBox="0 0 48 48" version="1.1">
<g id="surface1">
<path style=" stroke:none;fill-rule:evenodd;fill:rgb(9.411765%,8.627451%,8.627451%);fill-opacity:1;" d="M 24 1.914062 C 11.496094 1.914062 1.355469 12.050781 1.355469 24.558594 C 1.355469 34.566406 7.84375 43.054688 16.839844 46.046875 C 17.972656 46.257812 18.386719 45.554688 18.386719 44.957031 C 18.386719 44.417969 18.367188 42.632812 18.355469 40.742188 C 12.058594 42.113281 10.726562 38.070312 10.726562 38.070312 C 9.699219 35.453125 8.214844 34.757812 8.214844 34.757812 C 6.160156 33.351562 8.367188 33.378906 8.367188 33.378906 C 10.640625 33.539062 11.839844 35.714844 11.839844 35.714844 C 13.859375 39.175781 17.136719 38.175781 18.429688 37.597656 C 18.632812 36.132812 19.21875 35.132812 19.867188 34.566406 C 14.835938 33.996094 9.550781 32.054688 9.550781 23.378906 C 9.550781 20.90625 10.433594 18.882812 11.882812 17.296875 C 11.648438 16.726562 10.871094 14.425781 12.101562 11.304688 C 12.101562 11.304688 14.003906 10.695312 18.332031 13.628906 C 20.136719 13.125 22.074219 12.871094 24 12.863281 C 25.921875 12.871094 27.863281 13.125 29.671875 13.625 C 33.996094 10.695312 35.894531 11.304688 35.894531 11.304688 C 37.125 14.425781 36.351562 16.726562 36.117188 17.296875 C 37.566406 18.882812 38.445312 20.902344 38.445312 23.375 C 38.445312 32.074219 33.148438 33.988281 28.105469 34.550781 C 28.917969 35.253906 29.644531 36.632812 29.644531 38.742188 C 29.644531 41.773438 29.617188 44.210938 29.617188 44.957031 C 29.617188 45.5625 30.023438 46.265625 31.171875 46.042969 C 40.164062 43.046875 46.644531 34.5625 46.644531 24.558594 C 46.644531 12.050781 36.507812 1.914062 24 1.914062 Z M 24 1.914062 "/>
<path style=" stroke:none;fill-rule:nonzero;fill:rgb(9.411765%,8.627451%,8.627451%);fill-opacity:1;" d="M 9.929688 34.425781 C 9.882812 34.539062 9.703125 34.574219 9.542969 34.496094 C 9.378906 34.421875 9.285156 34.269531 9.339844 34.15625 C 9.386719 34.039062 9.566406 34.007812 9.730469 34.085938 C 9.894531 34.160156 9.988281 34.316406 9.929688 34.425781 Z M 10.847656 35.449219 C 10.742188 35.550781 10.53125 35.503906 10.386719 35.34375 C 10.238281 35.1875 10.210938 34.976562 10.320312 34.875 C 10.433594 34.777344 10.636719 34.824219 10.785156 34.980469 C 10.933594 35.140625 10.960938 35.347656 10.847656 35.449219 Z M 11.742188 36.753906 C 11.601562 36.851562 11.375 36.761719 11.234375 36.558594 C 11.097656 36.359375 11.097656 36.117188 11.238281 36.019531 C 11.378906 35.921875 11.601562 36.011719 11.746094 36.210938 C 11.882812 36.414062 11.882812 36.65625 11.742188 36.753906 Z M 12.964844 38.015625 C 12.839844 38.152344 12.578125 38.113281 12.382812 37.929688 C 12.183594 37.746094 12.128906 37.484375 12.253906 37.351562 C 12.378906 37.210938 12.644531 37.25 12.839844 37.4375 C 13.039062 37.617188 13.097656 37.878906 12.964844 38.015625 Z M 14.652344 38.746094 C 14.597656 38.925781 14.34375 39.003906 14.085938 38.929688 C 13.828125 38.851562 13.664062 38.644531 13.714844 38.464844 C 13.765625 38.285156 14.023438 38.203125 14.28125 38.28125 C 14.539062 38.359375 14.707031 38.566406 14.652344 38.746094 Z M 16.507812 38.882812 C 16.511719 39.070312 16.292969 39.222656 16.027344 39.226562 C 15.753906 39.234375 15.535156 39.082031 15.53125 38.898438 C 15.53125 38.710938 15.746094 38.558594 16.015625 38.550781 C 16.285156 38.546875 16.507812 38.695312 16.507812 38.882812 Z M 18.230469 38.589844 C 18.261719 38.769531 18.074219 38.957031 17.808594 39.007812 C 17.546875 39.054688 17.300781 38.941406 17.269531 38.761719 C 17.234375 38.574219 17.425781 38.390625 17.6875 38.339844 C 17.957031 38.292969 18.195312 38.402344 18.230469 38.589844 Z M 18.230469 38.589844 "/>
</g>
</svg>
