<?xml version="1.0" encoding="UTF-8"?>
<svg xmlns="http://www.w3.org/2000/svg" xmlns:xlink="http://www.w3.org/1999/xlink" width="48px" height="48px" viewBox="0 0 48 48" version="1.1">
<g id="surface1">
<path style=" stroke:none;fill-rule:nonzero;fill:rgb(30.588235%,55.686275%,96.862745%);fill-opacity:1;" d="M 33.03125 24 C 33.03125 28.988281 28.988281 33.03125 24 33.03125 C 19.011719 33.03125 14.96875 28.988281 14.96875 24 C 14.96875 19.011719 19.011719 14.96875 24 14.96875 C 28.988281 14.96875 33.03125 19.011719 33.03125 24 Z M 33.03125 24 "/>
<path style=" stroke:none;fill-rule:nonzero;fill:rgb(30.588235%,55.686275%,96.862745%);fill-opacity:1;" d="M 42.425781 8.675781 C 42.429688 7.460938 41.71875 6.355469 40.613281 5.851562 C 39.507812 5.347656 38.207031 5.535156 37.289062 6.332031 C 28.007812 -0.652344 14.902344 0.734375 7.285156 9.503906 C -0.335938 18.273438 0.128906 31.441406 8.34375 39.65625 C 16.558594 47.871094 29.726562 48.335938 38.496094 40.714844 C 47.265625 33.097656 48.652344 19.992188 41.667969 10.710938 C 42.15625 10.148438 42.429688 9.425781 42.425781 8.675781 Z M 24 45.375 C 14.699219 45.382812 6.464844 39.378906 3.625 30.519531 C 0.789062 21.664062 4.003906 11.992188 11.574219 6.59375 C 19.148438 1.195312 29.339844 1.3125 36.789062 6.886719 C 35.914062 8.117188 36.054688 9.804688 37.125 10.871094 C 38.195312 11.941406 39.878906 12.082031 41.109375 11.207031 C 45.949219 17.6875 46.71875 26.339844 43.097656 33.570312 C 39.476562 40.800781 32.085938 45.371094 24 45.375 Z M 24 45.375 "/>
</g>
</svg>
