<?xml version="1.0" encoding="UTF-8"?>
<svg xmlns="http://www.w3.org/2000/svg" xmlns:xlink="http://www.w3.org/1999/xlink" width="48px" height="48px" viewBox="0 0 48 48" version="1.1">
<g id="surface1">
<path style=" stroke:none;fill-rule:nonzero;fill:rgb(96.862745%,87.45098%,11.764706%);fill-opacity:1;" d="M 7.199219 0 L 40.800781 0 C 44.777344 0 48 3.222656 48 7.199219 L 48 40.800781 C 48 44.777344 44.777344 48 40.800781 48 L 7.199219 48 C 3.222656 48 0 44.777344 0 40.800781 L 0 7.199219 C 0 3.222656 3.222656 0 7.199219 0 Z M 7.199219 0 "/>
<path style=" stroke:none;fill-rule:nonzero;fill:rgb(0%,0%,0%);fill-opacity:1;" d="M 30.375 34.6875 C 31.3125 36.28125 32.625 37.40625 34.78125 37.40625 C 36.65625 37.40625 37.875 36.46875 37.875 35.15625 C 37.875 33.65625 36.65625 33.09375 34.59375 32.15625 L 33.46875 31.6875 C 30.1875 30.28125 28.03125 28.59375 28.03125 24.9375 C 28.03125 21.5625 30.5625 18.9375 34.59375 18.9375 C 37.5 18.9375 39.5625 19.96875 40.96875 22.59375 L 37.5 24.84375 C 36.75 23.4375 35.90625 22.875 34.59375 22.875 C 33.28125 22.875 32.4375 23.71875 32.4375 24.84375 C 32.4375 26.15625 33.28125 26.71875 35.25 27.5625 L 36.375 28.03125 C 40.21875 29.71875 42.375 31.3125 42.375 35.15625 C 42.375 39.1875 39.1875 41.4375 34.875 41.4375 C 30.65625 41.4375 27.9375 39.46875 26.625 36.84375 Z M 14.4375 35.0625 C 15.1875 36.28125 15.75 37.40625 17.34375 37.40625 C 18.84375 37.40625 19.78125 36.84375 19.78125 34.59375 L 19.78125 19.03125 L 24.28125 19.03125 L 24.28125 34.40625 C 24.28125 39.09375 21.5625 41.15625 17.53125 41.15625 C 13.875 41.15625 11.8125 39.28125 10.78125 37.03125 Z M 14.4375 35.0625 "/>
</g>
</svg>
