<?xml version="1.0" encoding="UTF-8"?>
<svg xmlns="http://www.w3.org/2000/svg" xmlns:xlink="http://www.w3.org/1999/xlink" width="48px" height="48px" viewBox="0 0 48 48" version="1.1">
<g id="surface1">
<path style=" stroke:none;fill-rule:nonzero;fill:rgb(30.588235%,30.588235%,30.588235%);fill-opacity:1;" d="M 1.984375 25.027344 L 1.984375 19.785156 L 3.324219 19.785156 L 3.324219 25.425781 C 3.382812 25.878906 3.339844 26.339844 3.1875 26.78125 C 3.035156 27.21875 2.785156 27.628906 2.445312 27.980469 C 1.8125 28.449219 1 28.699219 0.167969 28.691406 L 0.0273438 27.835938 C 0.566406 27.835938 1.085938 27.667969 1.484375 27.359375 C 1.84375 27.003906 1.984375 26.515625 1.984375 25.027344 Z M 11.964844 24.351562 C 11.964844 24.992188 11.964844 25.5625 12.023438 26.058594 L 10.835938 26.058594 L 10.753906 25.042969 C 10.507812 25.402344 10.152344 25.699219 9.726562 25.902344 C 9.296875 26.105469 8.816406 26.210938 8.328125 26.203125 C 7.171875 26.203125 5.792969 25.664062 5.792969 23.476562 L 5.792969 19.835938 L 7.128906 19.835938 L 7.128906 23.246094 C 7.128906 24.429688 7.558594 25.222656 8.769531 25.222656 C 9.015625 25.226562 9.261719 25.183594 9.492188 25.105469 C 9.722656 25.023438 9.933594 24.90625 10.109375 24.757812 C 10.285156 24.605469 10.421875 24.425781 10.515625 24.230469 C 10.609375 24.035156 10.65625 23.824219 10.65625 23.613281 L 10.65625 19.792969 L 11.992188 19.792969 L 11.992188 24.320312 Z M 14.5 21.863281 C 14.5 21.070312 14.5 20.425781 14.441406 19.835938 L 15.636719 19.835938 L 15.699219 20.902344 C 15.964844 20.515625 16.347656 20.199219 16.808594 19.988281 C 17.269531 19.773438 17.789062 19.671875 18.3125 19.691406 C 20.089844 19.691406 21.429688 20.960938 21.429688 22.851562 C 21.429688 25.085938 19.820312 26.191406 18.085938 26.191406 C 17.640625 26.210938 17.199219 26.128906 16.800781 25.957031 C 16.402344 25.785156 16.066406 25.527344 15.816406 25.214844 L 15.816406 28.621094 L 14.5 28.621094 Z M 15.816406 23.527344 C 15.820312 23.679688 15.839844 23.835938 15.878906 23.984375 C 15.992188 24.363281 16.25 24.699219 16.609375 24.9375 C 16.972656 25.179688 17.417969 25.308594 17.875 25.308594 C 19.28125 25.308594 20.109375 24.328125 20.109375 22.902344 C 20.109375 21.660156 19.332031 20.59375 17.925781 20.59375 C 17.367188 20.632812 16.847656 20.84375 16.457031 21.1875 C 16.070312 21.53125 15.84375 21.984375 15.816406 22.460938 Z M 23.8125 19.832031 L 25.421875 23.503906 C 25.589844 23.914062 25.769531 24.40625 25.890625 24.773438 C 26.03125 24.398438 26.179688 23.921875 26.359375 23.476562 L 27.816406 19.832031 L 29.226562 19.832031 L 27.226562 24.261719 C 26.230469 26.390625 25.621094 27.492188 24.703125 28.15625 C 24.238281 28.515625 23.675781 28.769531 23.0625 28.886719 L 22.734375 27.933594 C 23.160156 27.816406 23.558594 27.625 23.902344 27.378906 C 24.390625 27.042969 24.777344 26.609375 25.03125 26.121094 C 25.085938 26.035156 25.125 25.941406 25.140625 25.847656 C 25.128906 25.742188 25.101562 25.644531 25.050781 25.546875 L 22.335938 19.8125 L 23.792969 19.8125 Z M 32.777344 18.042969 L 32.777344 19.832031 L 34.695312 19.832031 L 34.695312 20.683594 L 32.777344 20.683594 L 32.777344 24.042969 C 32.777344 24.808594 33.039062 25.253906 33.777344 25.253906 C 34.039062 25.253906 34.300781 25.230469 34.554688 25.175781 L 34.613281 26.027344 C 34.234375 26.140625 33.832031 26.191406 33.425781 26.179688 C 33.160156 26.195312 32.890625 26.160156 32.640625 26.078125 C 32.390625 25.996094 32.164062 25.867188 31.980469 25.703125 C 31.570312 25.238281 31.386719 24.660156 31.460938 24.085938 L 31.460938 20.675781 L 30.320312 20.675781 L 30.320312 19.824219 L 31.480469 19.824219 L 31.480469 18.308594 Z M 37.160156 23.144531 C 37.132812 23.433594 37.179688 23.722656 37.296875 23.996094 C 37.414062 24.265625 37.597656 24.515625 37.839844 24.71875 C 38.078125 24.925781 38.367188 25.082031 38.6875 25.183594 C 39.007812 25.28125 39.347656 25.324219 39.6875 25.300781 C 40.371094 25.3125 41.050781 25.203125 41.683594 24.976562 L 41.914062 25.828125 C 41.136719 26.101562 40.304688 26.230469 39.464844 26.210938 C 38.976562 26.238281 38.488281 26.175781 38.03125 26.03125 C 37.570312 25.882812 37.15625 25.648438 36.8125 25.351562 C 36.46875 25.054688 36.207031 24.695312 36.039062 24.304688 C 35.875 23.910156 35.808594 23.492188 35.851562 23.074219 C 35.851562 21.199219 37.160156 19.71875 39.296875 19.71875 C 41.691406 19.71875 42.292969 21.507812 42.292969 22.648438 C 42.304688 22.824219 42.304688 23 42.292969 23.175781 L 37.128906 23.175781 Z M 41.074219 22.292969 C 41.113281 22.0625 41.09375 21.832031 41.019531 21.609375 C 40.941406 21.390625 40.8125 21.183594 40.636719 21.011719 C 40.460938 20.835938 40.242188 20.695312 39.996094 20.597656 C 39.753906 20.503906 39.484375 20.453125 39.214844 20.449219 C 38.667969 20.484375 38.152344 20.691406 37.773438 21.03125 C 37.398438 21.375 37.179688 21.820312 37.167969 22.292969 Z M 44.320312 21.769531 C 44.320312 21.035156 44.320312 20.40625 44.261719 19.824219 L 45.460938 19.824219 L 45.460938 21.042969 L 45.519531 21.042969 C 45.644531 20.667969 45.90625 20.335938 46.265625 20.089844 C 46.621094 19.847656 47.058594 19.703125 47.515625 19.679688 C 47.644531 19.667969 47.769531 19.667969 47.898438 19.679688 L 47.898438 20.746094 C 47.746094 20.730469 47.589844 20.730469 47.4375 20.746094 C 46.984375 20.761719 46.554688 20.917969 46.222656 21.183594 C 45.894531 21.449219 45.691406 21.808594 45.648438 22.195312 C 45.613281 22.367188 45.59375 22.546875 45.589844 22.722656 L 45.589844 26.039062 L 44.273438 26.039062 L 44.273438 21.777344 Z M 44.320312 21.769531 "/>
<path style=" stroke:none;fill-rule:nonzero;fill:rgb(46.27451%,46.27451%,46.666667%);fill-opacity:1;" d="M 43.734375 2.714844 C 43.777344 3.285156 43.617188 3.855469 43.277344 4.351562 C 42.9375 4.847656 42.433594 5.242188 41.828125 5.492188 C 41.222656 5.742188 40.542969 5.832031 39.878906 5.75 C 39.210938 5.667969 38.589844 5.421875 38.089844 5.035156 C 37.59375 4.652344 37.238281 4.152344 37.074219 3.59375 C 36.910156 3.039062 36.945312 2.453125 37.171875 1.914062 C 37.398438 1.375 37.808594 0.902344 38.351562 0.5625 C 38.890625 0.222656 39.539062 0.0273438 40.210938 0.00390625 C 40.652344 -0.015625 41.09375 0.0390625 41.507812 0.164062 C 41.921875 0.289062 42.304688 0.480469 42.632812 0.734375 C 42.960938 0.984375 43.226562 1.289062 43.417969 1.628906 C 43.605469 1.96875 43.714844 2.339844 43.734375 2.714844 Z M 43.734375 2.714844 "/>
<path style=" stroke:none;fill-rule:nonzero;fill:rgb(95.294118%,46.666667%,14.901961%);fill-opacity:1;" d="M 23.992188 36.085938 C 15.003906 36.085938 7.105469 33.335938 3.023438 29.269531 C 4.605469 32.925781 7.464844 36.082031 11.214844 38.308594 C 14.964844 40.535156 19.421875 41.730469 23.992188 41.730469 C 28.558594 41.730469 33.019531 40.535156 36.769531 38.308594 C 40.515625 36.082031 43.375 32.925781 44.960938 29.269531 C 40.886719 33.335938 33.019531 36.085938 23.992188 36.085938 Z M 23.992188 36.085938 "/>
<path style=" stroke:none;fill-rule:nonzero;fill:rgb(95.294118%,46.666667%,14.901961%);fill-opacity:1;" d="M 23.992188 9.65625 C 32.976562 9.65625 40.875 12.410156 44.960938 16.472656 C 43.375 12.816406 40.515625 9.664062 36.769531 7.433594 C 33.019531 5.207031 28.558594 4.011719 23.992188 4.011719 C 19.421875 4.011719 14.964844 5.207031 11.214844 7.433594 C 7.464844 9.664062 4.605469 12.816406 3.023438 16.472656 C 7.105469 12.402344 14.964844 9.65625 23.992188 9.65625 Z M 23.992188 9.65625 "/>
<path style=" stroke:none;fill-rule:nonzero;fill:rgb(61.960784%,61.960784%,61.960784%);fill-opacity:1;" d="M 11.621094 43.996094 C 11.671875 44.71875 11.472656 45.433594 11.046875 46.058594 C 10.617188 46.683594 9.984375 47.183594 9.21875 47.496094 C 8.457031 47.8125 7.605469 47.925781 6.765625 47.824219 C 5.925781 47.722656 5.144531 47.410156 4.515625 46.929688 C 3.882812 46.445312 3.4375 45.8125 3.230469 45.113281 C 3.023438 44.414062 3.066406 43.675781 3.351562 42.996094 C 3.636719 42.316406 4.152344 41.722656 4.832031 41.292969 C 5.515625 40.867188 6.332031 40.621094 7.175781 40.585938 C 7.730469 40.5625 8.285156 40.628906 8.808594 40.789062 C 9.332031 40.945312 9.8125 41.191406 10.226562 41.507812 C 10.636719 41.824219 10.972656 42.207031 11.210938 42.632812 C 11.453125 43.058594 11.589844 43.523438 11.621094 43.996094 Z M 11.621094 43.996094 "/>
<path style=" stroke:none;fill-rule:nonzero;fill:rgb(38.039216%,38.431373%,38.431373%);fill-opacity:1;" d="M 4.042969 8.730469 C 3.558594 8.742188 3.082031 8.628906 2.671875 8.410156 C 2.261719 8.191406 1.933594 7.875 1.734375 7.496094 C 1.535156 7.121094 1.472656 6.703125 1.550781 6.292969 C 1.628906 5.886719 1.847656 5.507812 2.179688 5.203125 C 2.511719 4.902344 2.9375 4.691406 3.410156 4.59375 C 3.882812 4.5 4.375 4.527344 4.828125 4.667969 C 5.285156 4.8125 5.679688 5.070312 5.960938 5.402344 C 6.246094 5.738281 6.410156 6.136719 6.429688 6.550781 C 6.449219 7.109375 6.207031 7.648438 5.761719 8.058594 C 5.316406 8.464844 4.699219 8.707031 4.042969 8.730469 Z M 4.042969 8.730469 "/>
</g>
</svg>
