<?xml version="1.0" encoding="UTF-8"?>
<svg xmlns="http://www.w3.org/2000/svg" xmlns:xlink="http://www.w3.org/1999/xlink" width="48px" height="48px" viewBox="0 0 48 48" version="1.1">
<g id="surface1">
<path style=" stroke:none;fill-rule:nonzero;fill:rgb(0%,38.039216%,54.117647%);fill-opacity:1;" d="M 0.75 33.921875 L 2.289062 33.921875 L 2.289062 27.839844 L 4.675781 33.140625 C 4.957031 33.785156 5.34375 34.011719 6.097656 34.011719 C 6.851562 34.011719 7.222656 33.785156 7.503906 33.140625 L 9.890625 27.839844 L 9.890625 33.921875 L 11.429688 33.921875 L 11.429688 27.847656 C 11.429688 27.253906 11.195312 26.96875 10.703125 26.820312 C 9.535156 26.457031 8.75 26.773438 8.394531 27.5625 L 6.054688 32.796875 L 3.789062 27.5625 C 3.445312 26.773438 2.644531 26.457031 1.476562 26.820312 C 0.988281 26.96875 0.75 27.253906 0.75 27.847656 Z M 12.710938 28.96875 L 14.253906 28.96875 L 14.253906 32.320312 C 14.238281 32.503906 14.3125 32.929688 15.15625 32.945312 C 15.585938 32.949219 18.476562 32.945312 18.503906 32.945312 L 18.503906 28.953125 L 20.046875 28.953125 C 20.054688 28.953125 20.046875 34.394531 20.046875 34.417969 C 20.054688 35.761719 18.382812 36.050781 17.609375 36.074219 L 12.746094 36.074219 L 12.746094 35.039062 C 12.753906 35.039062 17.605469 35.039062 17.617188 35.039062 C 18.609375 34.933594 18.492188 34.441406 18.492188 34.273438 L 18.492188 33.871094 L 15.21875 33.871094 C 13.695312 33.855469 12.726562 33.191406 12.710938 32.425781 C 12.710938 32.355469 12.746094 29.003906 12.710938 28.96875 Z M 12.710938 28.96875 "/>
<path style=" stroke:none;fill-rule:nonzero;fill:rgb(89.411765%,55.686275%,0%);fill-opacity:1;" d="M 21.234375 33.921875 L 25.664062 33.921875 C 26.183594 33.921875 26.6875 33.8125 27.089844 33.625 C 27.753906 33.320312 28.082031 32.90625 28.082031 32.363281 L 28.082031 31.234375 C 28.082031 30.792969 27.710938 30.375 26.984375 30.101562 C 26.597656 29.953125 26.125 29.875 25.664062 29.875 L 23.796875 29.875 C 23.175781 29.875 22.878906 29.6875 22.804688 29.269531 C 22.792969 29.222656 22.792969 29.183594 22.792969 29.132812 L 22.792969 28.429688 C 22.792969 28.390625 22.792969 28.351562 22.804688 28.304688 C 22.878906 27.988281 23.042969 27.898438 23.589844 27.847656 L 23.738281 27.839844 L 28.140625 27.839844 L 28.140625 26.8125 L 23.8125 26.8125 C 23.191406 26.8125 22.867188 26.851562 22.570312 26.941406 C 21.652344 27.226562 21.25 27.679688 21.25 28.472656 L 21.25 29.371094 C 21.25 30.0625 22.035156 30.652344 23.355469 30.792969 C 23.503906 30.800781 23.652344 30.8125 23.800781 30.8125 L 25.398438 30.8125 C 25.457031 30.8125 25.519531 30.8125 25.5625 30.820312 C 26.050781 30.859375 26.257812 30.949219 26.40625 31.128906 C 26.496094 31.214844 26.523438 31.304688 26.523438 31.402344 L 26.523438 32.300781 C 26.523438 32.410156 26.449219 32.550781 26.304688 32.667969 C 26.167969 32.785156 25.949219 32.867188 25.652344 32.886719 L 25.488281 32.894531 L 21.234375 32.894531 Z M 37.691406 32.132812 C 37.691406 33.191406 38.476562 33.785156 40.0625 33.902344 C 40.210938 33.910156 40.359375 33.921875 40.507812 33.921875 L 44.519531 33.921875 L 44.519531 32.894531 L 40.476562 32.894531 C 39.574219 32.894531 39.234375 32.667969 39.234375 32.125 L 39.234375 26.8125 L 37.691406 26.8125 Z M 29.0625 32.1875 L 29.0625 28.527344 C 29.0625 27.597656 29.71875 27.03125 31.007812 26.851562 C 31.140625 26.832031 31.289062 26.824219 31.425781 26.824219 L 34.347656 26.824219 C 34.496094 26.824219 34.628906 26.832031 34.777344 26.851562 C 36.070312 27.03125 36.722656 27.59375 36.722656 28.527344 L 36.722656 32.1875 C 36.722656 32.941406 36.445312 33.347656 35.808594 33.609375 L 37.324219 34.980469 L 35.535156 34.980469 L 34.308594 33.871094 L 33.070312 33.949219 L 31.425781 33.949219 C 31.140625 33.949219 30.84375 33.910156 30.519531 33.820312 C 29.539062 33.554688 29.0625 33.039062 29.0625 32.1875 Z M 30.726562 32.097656 C 30.726562 32.148438 30.742188 32.199219 30.757812 32.257812 C 30.84375 32.683594 31.246094 32.921875 31.855469 32.921875 L 33.253906 32.921875 L 31.96875 31.761719 L 33.757812 31.761719 L 34.878906 32.773438 C 35.085938 32.660156 35.222656 32.492188 35.269531 32.277344 C 35.285156 32.226562 35.285156 32.179688 35.285156 32.128906 L 35.285156 28.617188 C 35.285156 28.578125 35.285156 28.527344 35.269531 28.476562 C 35.179688 28.082031 34.777344 27.855469 34.183594 27.855469 L 31.855469 27.855469 C 31.171875 27.855469 30.726562 28.152344 30.726562 28.617188 Z M 30.726562 32.097656 "/>
<path style=" stroke:none;fill-rule:nonzero;fill:rgb(0%,38.039216%,54.117647%);fill-opacity:1;" d="M 45.875 25.105469 C 44.929688 25.082031 44.207031 25.167969 43.585938 25.429688 C 43.410156 25.503906 43.132812 25.507812 43.101562 25.726562 C 43.199219 25.828125 43.214844 25.980469 43.289062 26.101562 C 43.4375 26.34375 43.6875 26.664062 43.910156 26.832031 C 44.152344 27.011719 44.402344 27.210938 44.664062 27.367188 C 45.128906 27.652344 45.644531 27.8125 46.089844 28.097656 C 46.355469 28.261719 46.617188 28.472656 46.871094 28.660156 C 47 28.753906 47.085938 28.898438 47.25 28.957031 L 47.25 28.929688 C 47.164062 28.820312 47.140625 28.667969 47.0625 28.554688 L 46.710938 28.203125 C 46.367188 27.75 45.933594 27.351562 45.472656 27.019531 C 45.101562 26.753906 44.277344 26.398438 44.125 25.96875 L 44.097656 25.941406 C 44.359375 25.914062 44.664062 25.816406 44.90625 25.753906 C 45.3125 25.644531 45.671875 25.671875 46.089844 25.566406 L 46.65625 25.402344 L 46.65625 25.296875 C 46.445312 25.078125 46.292969 24.792969 46.0625 24.59375 C 45.460938 24.082031 44.804688 23.570312 44.125 23.140625 C 43.75 22.902344 43.285156 22.75 42.886719 22.546875 C 42.753906 22.480469 42.515625 22.445312 42.429688 22.332031 C 42.21875 22.066406 42.105469 21.726562 41.945312 21.417969 C 41.605469 20.765625 41.273438 20.054688 40.972656 19.371094 C 40.769531 18.902344 40.636719 18.441406 40.382812 18.023438 C 39.160156 16.015625 37.84375 14.800781 35.804688 13.609375 C 35.371094 13.355469 34.847656 13.253906 34.296875 13.125 L 33.40625 13.070312 C 33.226562 12.992188 33.039062 12.773438 32.867188 12.664062 C 32.195312 12.238281 30.460938 11.3125 29.960938 12.53125 C 29.644531 13.300781 30.433594 14.054688 30.714844 14.445312 C 30.914062 14.71875 31.164062 15.023438 31.308594 15.332031 C 31.398438 15.535156 31.414062 15.738281 31.496094 15.953125 C 31.691406 16.480469 31.863281 17.054688 32.113281 17.539062 C 32.242188 17.785156 32.382812 18.046875 32.546875 18.265625 C 32.644531 18.402344 32.816406 18.460938 32.839844 18.671875 C 32.675781 18.902344 32.664062 19.265625 32.574219 19.558594 C 32.152344 20.886719 32.308594 22.535156 32.921875 23.519531 C 33.109375 23.820312 33.554688 24.464844 34.160156 24.21875 C 34.695312 24 34.574219 23.328125 34.726562 22.738281 C 34.761719 22.601562 34.742188 22.503906 34.808594 22.414062 L 34.808594 22.441406 L 35.292969 23.410156 C 35.652344 23.988281 36.289062 24.589844 36.828125 25 C 37.105469 25.210938 37.328125 25.574219 37.6875 25.699219 L 37.6875 25.671875 L 37.664062 25.671875 C 37.59375 25.5625 37.484375 25.519531 37.394531 25.429688 C 37.183594 25.222656 36.949219 24.964844 36.773438 24.730469 C 36.28125 24.0625 35.851562 23.335938 35.453125 22.574219 C 35.265625 22.214844 35.101562 21.8125 34.941406 21.445312 C 34.882812 21.300781 34.882812 21.085938 34.753906 21.015625 C 34.578125 21.285156 34.324219 21.503906 34.1875 21.820312 C 33.972656 22.332031 33.945312 22.953125 33.867188 23.597656 L 33.8125 23.625 C 33.4375 23.535156 33.304688 23.148438 33.164062 22.816406 C 32.8125 21.980469 32.746094 20.632812 33.058594 19.667969 C 33.136719 19.417969 33.5 18.632812 33.355469 18.402344 C 33.285156 18.171875 33.050781 18.039062 32.921875 17.863281 C 32.761719 17.644531 32.601562 17.359375 32.492188 17.109375 C 32.203125 16.457031 32.070312 15.722656 31.765625 15.0625 C 31.621094 14.746094 31.375 14.425781 31.171875 14.148438 C 30.949219 13.835938 30.699219 13.605469 30.527344 13.230469 C 30.464844 13.097656 30.382812 12.882812 30.472656 12.746094 C 30.5 12.652344 30.542969 12.613281 30.632812 12.585938 C 30.789062 12.464844 31.226562 12.625 31.386719 12.691406 C 31.820312 12.871094 32.179688 13.042969 32.546875 13.285156 C 32.722656 13.402344 32.898438 13.625 33.113281 13.6875 L 33.355469 13.6875 C 33.734375 13.773438 34.160156 13.714844 34.511719 13.824219 C 35.136719 14.011719 35.699219 14.308594 36.207031 14.628906 C 37.761719 15.609375 39.03125 17.007812 39.898438 18.671875 C 40.039062 18.9375 40.097656 19.195312 40.222656 19.476562 C 40.46875 20.050781 40.78125 20.640625 41.027344 21.203125 C 41.273438 21.761719 41.515625 22.324219 41.863281 22.789062 C 42.046875 23.035156 42.753906 23.164062 43.074219 23.300781 C 43.300781 23.398438 43.667969 23.496094 43.882812 23.625 C 44.289062 23.871094 44.6875 24.164062 45.066406 24.433594 C 45.257812 24.570312 45.847656 24.863281 45.875 25.105469 Z M 33.839844 14.847656 C 33.640625 14.84375 33.5 14.867188 33.355469 14.902344 L 33.355469 14.929688 L 33.382812 14.929688 C 33.476562 15.121094 33.640625 15.246094 33.757812 15.414062 L 34.027344 15.976562 L 34.054688 15.953125 C 34.222656 15.835938 34.296875 15.648438 34.296875 15.359375 C 34.230469 15.289062 34.21875 15.199219 34.160156 15.117188 C 34.085938 15.003906 33.9375 14.941406 33.839844 14.847656 Z M 33.839844 14.847656 "/>
</g>
</svg>
