<?xml version="1.0" encoding="UTF-8"?>
<svg xmlns="http://www.w3.org/2000/svg" xmlns:xlink="http://www.w3.org/1999/xlink" width="48px" height="48px" viewBox="0 0 48 48" version="1.1">
<g id="surface1">
<path style=" stroke:none;fill-rule:nonzero;fill:rgb(30.196078%,67.058824%,81.176471%);fill-opacity:1;" d="M 35.914062 32.671875 L 35.925781 43.273438 L 25.855469 47.96875 L 25.855469 37.371094 Z M 48 27.003906 L 48 37.644531 L 39.410156 41.648438 L 39.40625 31.058594 Z M 35.898438 18.476562 L 35.910156 28.96875 L 25.855469 33.636719 L 25.855469 23.144531 Z M 48 12.855469 L 48 23.28125 L 39.402344 27.367188 L 39.394531 16.855469 Z M 24.324219 11.625 L 33.3125 15.863281 L 23.988281 20.238281 L 15.171875 16.101562 Z M 11.824219 5.726562 L 20.398438 9.769531 L 11.222656 14.246094 L 2.417969 10.113281 Z M 36.328125 5.789062 L 45.5625 10.113281 L 37.304688 13.988281 L 28.296875 9.746094 Z M 24.042969 0.03125 L 32.355469 3.925781 L 24.386719 7.902344 L 15.820312 3.863281 Z M 24.042969 0.03125 "/>
<path style=" stroke:none;fill-rule:nonzero;fill:rgb(30.196078%,46.666667%,81.176471%);fill-opacity:1;" d="M 22.300781 23.144531 L 15.519531 19.957031 L 15.519531 33.726562 C 15.519531 33.726562 7.226562 17.238281 6.457031 15.757812 C 6.355469 15.566406 5.949219 15.355469 5.84375 15.304688 C 4.359375 14.574219 0 12.511719 0 12.511719 L 0 36.84375 L 6.027344 39.855469 L 6.027344 27.136719 C 6.027344 27.136719 14.234375 41.871094 14.320312 42.03125 C 14.402344 42.195312 15.226562 43.746094 16.105469 44.292969 C 17.277344 45.015625 22.304688 47.839844 22.304688 47.839844 Z M 22.300781 23.144531 "/>
</g>
</svg>
