<?xml version="1.0" encoding="UTF-8"?>
<svg xmlns="http://www.w3.org/2000/svg" xmlns:xlink="http://www.w3.org/1999/xlink" width="48px" height="48px" viewBox="0 0 48 48" version="1.1">
<g id="surface1">
<path style=" stroke:none;fill-rule:evenodd;fill:rgb(4.705882%,1.568627%,32.941176%);fill-opacity:1;" d="M 37.117188 18.140625 L 37.117188 36.285156 L 40.621094 36.257812 L 44.121094 36.230469 L 44.15625 18.113281 L 44.191406 0 L 37.117188 0 Z M 15.09375 8.304688 L 15.09375 13.757812 L 22.164062 13.757812 L 22.164062 2.851562 L 15.09375 2.851562 Z M 3.808594 29.859375 L 3.808594 48 L 10.878906 48 L 10.878906 11.71875 L 3.808594 11.71875 Z M 26.105469 17.222656 L 26.105469 22.726562 L 33.179688 22.726562 L 33.144531 17.25 L 33.109375 11.769531 L 29.609375 11.742188 L 26.105469 11.714844 Z M 15.09375 30.675781 L 15.09375 36.179688 L 22.164062 36.179688 L 22.164062 25.171875 L 15.09375 25.171875 Z M 26.105469 39.644531 L 26.105469 45.148438 L 33.175781 45.148438 L 33.175781 34.140625 L 26.105469 34.140625 Z M 26.105469 39.644531 "/>
<path style=" stroke:none;fill-rule:evenodd;fill:rgb(95.294118%,40.784314%,28.235294%);fill-opacity:1;" d="M 15.09375 19.515625 L 15.09375 22.113281 L 22.164062 22.113281 L 22.164062 16.917969 L 15.09375 16.917969 Z M 26.105469 28.484375 L 26.105469 31.082031 L 33.175781 31.082031 L 33.175781 25.886719 L 26.105469 25.886719 Z M 26.105469 28.484375 "/>
</g>
</svg>
