<?xml version="1.0" encoding="UTF-8"?>
<svg xmlns="http://www.w3.org/2000/svg" xmlns:xlink="http://www.w3.org/1999/xlink" width="48px" height="48px" viewBox="0 0 48 48" version="1.1">
<g id="surface1">
<path style=" stroke:none;fill-rule:nonzero;fill:rgb(38.039216%,50.588235%,71.372549%);fill-opacity:1;" d="M 24 12.390625 C 11.347656 12.390625 1.089844 17.585938 1.089844 24 C 1.089844 30.414062 11.347656 35.609375 24 35.609375 C 36.652344 35.609375 46.910156 30.414062 46.910156 24 C 46.910156 17.585938 36.652344 12.390625 24 12.390625 Z M 18.039062 26.261719 C 17.492188 26.773438 16.882812 26.984375 16.214844 27.203125 C 15.546875 27.421875 14.695312 27.375 13.660156 27.375 L 11.316406 27.375 L 10.667969 31.125 L 7.929688 31.125 L 10.371094 18.375 L 15.636719 18.375 C 17.222656 18.375 18.375 18.832031 19.101562 19.660156 C 19.828125 20.492188 20.046875 21.671875 19.757812 23.164062 C 19.640625 23.777344 19.4375 24.347656 19.152344 24.855469 C 18.867188 25.367188 18.496094 25.839844 18.039062 26.261719 Z M 26.03125 27.375 L 27.109375 21.96875 C 27.234375 21.335938 27.1875 20.863281 26.976562 20.632812 C 26.761719 20.402344 26.308594 20.25 25.613281 20.25 L 23.441406 20.25 L 22.042969 27.375 L 19.324219 27.375 L 21.769531 15 L 24.484375 15 L 23.835938 18.375 L 26.253906 18.375 C 27.777344 18.375 28.828125 18.679688 29.40625 19.210938 C 29.984375 19.742188 30.15625 20.46875 29.925781 21.660156 L 28.789062 27.375 Z M 41.128906 23.183594 C 41.007812 23.796875 40.804688 24.359375 40.523438 24.867188 C 40.238281 25.375 39.867188 25.839844 39.410156 26.261719 C 38.863281 26.773438 38.253906 26.984375 37.585938 27.203125 C 36.917969 27.421875 36.066406 27.375 35.03125 27.375 L 32.6875 27.375 L 32.035156 31.125 L 29.300781 31.125 L 31.742188 18.375 L 37.007812 18.375 C 38.589844 18.375 39.746094 18.832031 40.472656 19.660156 C 41.199219 20.492188 41.417969 21.695312 41.128906 23.183594 Z M 35.96875 20.25 L 34.09375 20.25 L 33.070312 25.5 L 34.738281 25.5 C 35.839844 25.5 36.664062 25.390625 37.203125 24.976562 C 37.742188 24.558594 38.109375 23.914062 38.296875 22.941406 C 38.480469 22.007812 38.398438 21.28125 38.050781 20.894531 C 37.703125 20.511719 37.011719 20.25 35.96875 20.25 Z M 14.601562 20.25 L 12.722656 20.25 L 11.703125 25.5 L 13.367188 25.5 C 14.472656 25.5 15.292969 25.390625 15.832031 24.976562 C 16.375 24.558594 16.738281 23.914062 16.925781 22.941406 C 17.109375 22.007812 17.027344 21.28125 16.679688 20.894531 C 16.332031 20.511719 15.640625 20.25 14.601562 20.25 Z M 14.601562 20.25 "/>
</g>
</svg>
