<?xml version="1.0" encoding="UTF-8"?>
<svg xmlns="http://www.w3.org/2000/svg" xmlns:xlink="http://www.w3.org/1999/xlink" width="48px" height="48px" viewBox="0 0 48 47" version="1.1">
<defs>
<linearGradient id="linear0" gradientUnits="userSpaceOnUse" x1="0.12959" y1="0.12039" x2="0.79639" y2="0.78201" gradientTransform="matrix(35.488281,0,0,34.984375,0.0273437,0.0117187)">
<stop offset="0" style="stop-color:rgb(21.960784%,49.411765%,72.156863%);stop-opacity:1;"/>
<stop offset="1" style="stop-color:rgb(21.176471%,41.176471%,58.039216%);stop-opacity:1;"/>
</linearGradient>
<linearGradient id="linear1" gradientUnits="userSpaceOnUse" x1="0.19128" y1="0.20579" x2="0.90742" y2="0.88429" gradientTransform="matrix(35.488281,0,0,34.984375,12.417969,11.855469)">
<stop offset="0" style="stop-color:rgb(100%,87.843137%,32.156863%);stop-opacity:1;"/>
<stop offset="1" style="stop-color:rgb(100%,76.470588%,19.215686%);stop-opacity:1;"/>
</linearGradient>
</defs>
<g id="surface1">
<path style=" stroke:none;fill-rule:nonzero;fill:url(#linear0);" d="M 23.792969 0.0117188 C 11.640625 0.0117188 12.398438 5.195312 12.398438 5.195312 L 12.410156 10.5625 L 24.011719 10.5625 L 24.011719 12.175781 L 7.804688 12.175781 C 7.804688 12.175781 0.0273438 11.308594 0.0273438 23.367188 C 0.0273438 35.421875 6.816406 34.996094 6.816406 34.996094 L 10.867188 34.996094 L 10.867188 29.398438 C 10.867188 29.398438 10.648438 22.726562 17.546875 22.726562 L 29.050781 22.726562 C 29.050781 22.726562 35.515625 22.828125 35.515625 16.585938 L 35.515625 6.261719 C 35.515625 6.261719 36.496094 0.0117188 23.792969 0.0117188 Z M 17.398438 3.625 C 17.953125 3.625 18.484375 3.839844 18.875 4.222656 C 19.265625 4.609375 19.484375 5.128906 19.484375 5.675781 C 19.484375 6.21875 19.265625 6.742188 18.875 7.125 C 18.484375 7.511719 17.953125 7.726562 17.398438 7.726562 C 16.84375 7.726562 16.3125 7.511719 15.921875 7.125 C 15.53125 6.742188 15.3125 6.21875 15.3125 5.675781 C 15.3125 5.128906 15.53125 4.609375 15.921875 4.222656 C 16.3125 3.839844 16.84375 3.625 17.398438 3.625 Z M 17.398438 3.625 "/>
<path style=" stroke:none;fill-rule:nonzero;fill:url(#linear1);" d="M 24.140625 46.839844 C 36.292969 46.839844 35.535156 41.65625 35.535156 41.65625 L 35.523438 36.289062 L 23.921875 36.289062 L 23.921875 34.675781 L 40.128906 34.675781 C 40.128906 34.675781 47.90625 35.542969 47.90625 23.488281 C 47.90625 11.429688 41.117188 11.855469 41.117188 11.855469 L 37.066406 11.855469 L 37.066406 17.453125 C 37.066406 17.453125 37.285156 24.125 30.386719 24.125 L 18.882812 24.125 C 18.882812 24.125 12.417969 24.023438 12.417969 30.265625 L 12.417969 40.589844 C 12.417969 40.589844 11.4375 46.839844 24.140625 46.839844 Z M 30.535156 43.230469 C 29.980469 43.230469 29.449219 43.011719 29.058594 42.628906 C 28.667969 42.242188 28.449219 41.722656 28.449219 41.175781 C 28.449219 40.632812 28.667969 40.109375 29.058594 39.726562 C 29.449219 39.339844 29.980469 39.125 30.535156 39.125 C 31.089844 39.125 31.621094 39.339844 32.011719 39.726562 C 32.402344 40.109375 32.621094 40.632812 32.621094 41.175781 C 32.621094 41.722656 32.402344 42.242188 32.011719 42.628906 C 31.621094 43.011719 31.089844 43.230469 30.535156 43.230469 Z M 30.535156 43.230469 "/>
</g>
</svg>
