<?xml version="1.0" encoding="UTF-8"?>
<svg xmlns="http://www.w3.org/2000/svg" xmlns:xlink="http://www.w3.org/1999/xlink" width="48px" height="48px" viewBox="0 0 48 47" version="1.1">
<g id="surface1">
<path style=" stroke:none;fill-rule:nonzero;fill:rgb(100%,100%,100%);fill-opacity:1;" d="M 24.164062 0.425781 C 11.667969 0.425781 1.539062 10.34375 1.539062 22.582031 C 1.539062 34.816406 11.667969 44.734375 24.164062 44.734375 C 36.546875 44.734375 46.632812 34.984375 46.789062 22.863281 L 46.789062 22.296875 C 46.632812 10.171875 36.546875 0.425781 24.164062 0.425781 Z M 24.164062 0.425781 "/>
<path style="fill-rule:nonzero;fill:rgb(68.627451%,85.490196%,82.352941%);fill-opacity:1;stroke-width:0.25;stroke-linecap:butt;stroke-linejoin:miter;stroke:rgb(100%,100%,100%);stroke-opacity:1;stroke-miterlimit:4;" d="M 100.418606 73.984445 C 103.088129 73.984445 105.219441 71.829772 105.219441 69.16941 C 105.219441 66.531034 103.088129 64.376361 100.418606 64.376361 C 97.770611 64.376361 95.61777 66.531034 95.61777 69.16941 C 95.61777 71.829772 97.770611 73.984445 100.418606 73.984445 Z M 90.084969 81.217991 C 92.64685 81.217991 94.735105 79.129277 94.735105 76.578847 C 94.735105 74.006431 92.64685 71.917717 90.084969 71.917717 C 87.523088 71.917717 85.434832 74.006431 85.434832 76.578847 C 85.434832 79.129277 87.523088 81.217991 90.084969 81.217991 Z M 80.138843 85.835148 C 81.710417 85.857134 83.195877 85.021649 83.992428 83.658488 C 84.78898 82.295327 84.78898 80.60237 83.992428 79.239209 C 83.195877 77.876049 81.710417 77.040563 80.138843 77.06255 C 77.706132 77.06255 75.747047 79.041331 75.747047 81.459842 C 75.747047 83.878353 77.706132 85.835148 80.138843 85.835148 Z M 109.159141 68.267965 C 110.945999 68.289951 112.603686 67.344533 113.486351 65.805481 C 114.390544 64.266429 114.390544 62.353606 113.486351 60.814554 C 112.603686 59.275502 110.945999 58.35207 109.159141 58.374057 C 106.468089 58.41803 104.315248 60.616676 104.315248 63.321011 C 104.315248 66.003359 106.468089 68.202005 109.159141 68.267965 Z M 72.668484 75.435551 C 74.498399 75.435551 75.98386 73.962458 75.98386 72.115596 C 75.98386 70.290719 74.498399 68.79564 72.668484 68.79564 C 70.838569 68.79564 69.353109 70.290719 69.353109 72.115596 C 69.353109 73.962458 70.838569 75.435551 72.668484 75.435551 Z M 64.46616 93.640342 C 66.640529 93.640342 68.405859 91.881425 68.405859 89.704765 C 68.405859 87.528105 66.640529 85.747202 64.46616 85.747202 C 62.29179 85.747202 60.526461 87.528105 60.526461 89.704765 C 60.526461 91.881425 62.29179 93.640342 64.46616 93.640342 Z M 69.48228 62.397579 C 72.108746 62.397579 74.240058 60.264893 74.240058 57.626517 C 74.240058 55.010128 72.108746 52.877441 69.48228 52.877441 C 66.855813 52.877441 64.724501 55.010128 64.724501 57.626517 C 64.724501 60.264893 66.855813 62.397579 69.48228 62.397579 Z M 82.334741 71.28011 C 83.669502 71.324083 84.896622 70.620516 85.585531 69.47722 C 86.252912 68.333924 86.252912 66.904804 85.585531 65.739522 C 84.896622 64.596226 83.669502 63.892659 82.334741 63.936632 C 80.332599 63.980605 78.739496 65.607603 78.739496 67.608371 C 78.739496 69.609139 80.332599 71.236137 82.334741 71.28011 Z M 145.757439 60.308865 C 148.147092 60.308865 150.063121 58.374057 150.063121 55.999519 C 150.063121 53.624981 148.147092 51.712159 145.757439 51.712159 C 143.389314 51.712159 141.473285 53.624981 141.473285 55.999519 C 141.473285 58.374057 143.389314 60.308865 145.757439 60.308865 Z M 55.531869 83.108827 C 56.974273 83.108827 58.136807 81.943544 58.136807 80.514424 C 58.136807 79.063318 56.974273 77.898035 55.531869 77.898035 C 54.089466 77.898035 52.926932 79.063318 52.926932 80.514424 C 52.926932 81.943544 54.089466 83.108827 55.531869 83.108827 Z M 64.207819 80.668329 C 65.327296 80.690316 66.382188 80.096681 66.941927 79.129277 C 67.523194 78.161873 67.523194 76.974604 66.941927 75.985213 C 66.382188 75.017809 65.327296 74.446161 64.207819 74.468147 C 62.507074 74.51212 61.150785 75.875281 61.150785 77.568238 C 61.150785 79.261196 62.507074 80.624356 64.207819 80.668329 Z M 48.405965 70.862367 C 49.869897 70.884354 51.247716 70.092841 52.00121 68.817626 C 52.754704 67.542411 52.754704 65.959386 52.00121 64.684171 C 51.247716 63.408957 49.869897 62.617444 48.405965 62.63943 C 46.167011 62.683403 44.358624 64.50828 44.358624 66.750899 C 44.358624 68.993518 46.167011 70.818394 48.405965 70.862367 Z M 64.530745 69.037491 C 65.305768 69.059477 66.037734 68.663721 66.425245 67.982141 C 66.812757 67.322547 66.812757 66.487061 66.425245 65.827467 C 66.037734 65.145887 65.305768 64.750131 64.530745 64.772117 C 63.368211 64.794104 62.442489 65.739522 62.442489 66.904804 C 62.442489 68.070087 63.368211 69.015504 64.530745 69.037491 Z M 93.18506 65.717535 C 95.380958 65.717535 97.167816 63.914645 97.167816 61.715999 C 97.167816 59.517353 95.380958 57.736449 93.18506 57.736449 C 90.967633 57.736449 89.180775 59.517353 89.180775 61.715999 C 89.180775 63.914645 90.967633 65.717535 93.18506 65.717535 Z M 123.497062 68.026114 C 124.74571 68.0481 125.908244 67.388506 126.532568 66.31117 C 127.156892 65.233833 127.156892 63.914645 126.532568 62.837309 C 125.908244 61.759972 124.74571 61.100378 123.497062 61.122365 C 121.62409 61.166337 120.13863 62.70539 120.13863 64.574239 C 120.13863 66.443088 121.62409 67.982141 123.497062 68.026114 Z M 129.804887 46.523354 C 131.053534 46.523354 132.06537 45.511976 132.06537 44.280735 C 132.06537 43.027506 131.053534 42.016129 129.804887 42.016129 C 128.556239 42.016129 127.565932 43.027506 127.565932 44.280735 C 127.565932 45.511976 128.556239 46.523354 129.804887 46.523354 Z M 137.146075 59.517353 C 139.23433 59.517353 140.913546 57.824395 140.913546 55.735681 C 140.913546 53.668954 139.23433 51.975996 137.146075 51.975996 C 135.057819 51.975996 133.378603 53.668954 133.378603 55.735681 C 133.378603 57.824395 135.057819 59.517353 137.146075 59.517353 Z M 99.492884 57.318707 C 101.645725 57.318707 103.367998 55.581776 103.367998 53.427103 C 103.367998 51.294416 101.645725 49.557485 99.492884 49.557485 C 97.361571 49.557485 95.61777 51.294416 95.61777 53.427103 C 95.61777 55.581776 97.361571 57.318707 99.492884 57.318707 Z M 50.989375 94.5198 C 52.733176 94.5198 54.132523 93.112667 54.132523 91.375736 C 54.132523 89.638806 52.733176 88.231672 50.989375 88.231672 C 49.267102 88.231672 47.846227 89.638806 47.846227 91.375736 C 47.846227 93.112667 49.267102 94.5198 50.989375 94.5198 Z M 50.989375 94.5198 " transform="matrix(0.181446,0,0,0.177666,0.775512,0)"/>
<path style="fill-rule:nonzero;fill:rgb(68.627451%,85.490196%,82.352941%);fill-opacity:1;stroke-width:0.25;stroke-linecap:butt;stroke-linejoin:miter;stroke:rgb(100%,100%,100%);stroke-opacity:1;stroke-miterlimit:4;" d="M 154.476445 61.122365 C 157.12444 61.122365 159.255752 58.989678 159.255752 56.351302 C 159.255752 53.712927 157.12444 51.558254 154.476445 51.558254 C 151.828451 51.558254 149.697138 53.712927 149.697138 56.351302 C 149.697138 58.989678 151.828451 61.122365 154.476445 61.122365 Z M 108.319533 57.890355 C 110.730715 57.890355 112.711328 55.933559 112.711328 53.493062 C 112.711328 51.074551 110.730715 49.117756 108.319533 49.117756 C 105.886822 49.117756 103.927737 51.074551 103.927737 53.493062 C 103.927737 55.933559 105.886822 57.890355 108.319533 57.890355 Z M 57.275671 61.430175 C 59.536154 61.430175 61.34454 59.605299 61.34454 57.36268 C 61.34454 55.12006 59.536154 53.295184 57.275671 53.295184 C 55.036716 53.295184 53.206801 55.12006 53.206801 57.36268 C 53.206801 59.605299 55.036716 61.430175 57.275671 61.430175 Z M 79.945087 50.920646 C 82.550025 50.920646 84.659809 48.809946 84.659809 46.215543 C 84.659809 43.599154 82.550025 41.51044 79.945087 41.51044 C 77.340149 41.51044 75.230365 43.599154 75.230365 46.215543 C 75.230365 48.809946 77.340149 50.920646 79.945087 50.920646 Z M 168.276157 57.252747 C 169.869259 57.252747 171.182492 55.955546 171.182492 54.350534 C 171.182492 52.745522 169.869259 51.448321 168.276157 51.448321 C 166.661526 51.448321 165.348293 52.745522 165.348293 54.350534 C 165.348293 55.955546 166.661526 57.252747 168.276157 57.252747 Z M 66.984984 45.380058 C 68.319745 45.402044 69.546865 44.698477 70.235774 43.555181 C 70.903155 42.389899 70.903155 40.960779 70.235774 39.817483 C 69.546865 38.6522 68.319745 37.97062 66.984984 37.992606 C 64.961313 38.014593 63.346682 39.663578 63.346682 41.686332 C 63.346682 43.709087 64.961313 45.358071 66.984984 45.380058 Z M 83.647974 61.95785 C 85.391775 61.95785 86.81265 60.550717 86.81265 58.7918 C 86.81265 57.054869 85.391775 55.647735 83.647974 55.647735 C 81.925701 55.647735 80.504826 57.054869 80.504826 58.7918 C 80.504826 60.550717 81.925701 61.95785 83.647974 61.95785 Z M 91.204446 55.12006 C 92.345452 55.142047 93.421872 54.526426 94.024668 53.537035 C 94.605935 52.547644 94.605935 51.294416 94.024668 50.305025 C 93.421872 49.315634 92.345452 48.700013 91.204446 48.722 C 89.460645 48.743986 88.061298 50.173106 88.061298 51.910037 C 88.061298 53.668954 89.460645 55.098074 91.204446 55.12006 Z M 41.796743 63.233065 C 43.583601 63.233065 45.026005 61.803945 45.026005 60.023041 C 45.026005 58.242138 43.583601 56.813018 41.796743 56.813018 C 40.031414 56.813018 38.58901 58.242138 38.58901 60.023041 C 38.58901 61.803945 40.031414 63.233065 41.796743 63.233065 Z M 50.666449 50.722768 C 52.302608 50.722768 53.615841 49.40358 53.615841 47.776582 C 53.615841 46.127597 52.302608 44.80841 50.666449 44.80841 C 49.030289 44.80841 47.717056 46.127597 47.717056 47.776582 C 47.717056 49.40358 49.030289 50.722768 50.666449 50.722768 Z M 118.825397 59.891123 C 120.181687 59.891123 121.301164 58.7918 121.301164 57.406652 C 121.301164 56.043492 120.181687 54.944169 118.825397 54.944169 C 117.447579 54.944169 116.34963 56.043492 116.34963 57.406652 C 116.34963 58.7918 117.447579 59.891123 118.825397 59.891123 Z M 39.53626 79.54702 C 41.796743 79.54702 43.626658 77.722143 43.626658 75.457538 C 43.626658 73.192932 41.796743 71.368056 39.53626 71.368056 C 37.275777 71.368056 35.445862 73.192932 35.445862 75.457538 C 35.445862 77.722143 37.275777 79.54702 39.53626 79.54702 Z M 30.386686 72.643271 C 31.506163 72.665257 32.539527 72.071623 33.099265 71.126205 C 33.659004 70.1588 33.659004 68.971531 33.099265 68.004127 C 32.539527 67.058709 31.506163 66.465075 30.386686 66.487061 C 28.70747 66.531034 27.372708 67.894195 27.372708 69.565166 C 27.372708 71.236137 28.70747 72.621284 30.386686 72.643271 Z M 127.264534 59.165569 C 128.986807 59.165569 130.364625 57.780422 130.364625 56.087465 C 130.364625 54.372521 128.986807 52.987374 127.264534 52.987374 C 125.56379 52.987374 124.164443 54.372521 124.164443 56.087465 C 124.164443 57.780422 125.56379 59.165569 127.264534 59.165569 Z M 56.909688 75.237673 C 59.557682 75.237673 61.688995 73.104986 61.688995 70.466611 C 61.688995 67.828235 59.557682 65.695549 56.909688 65.695549 C 54.283222 65.695549 52.151909 67.828235 52.151909 70.466611 C 52.151909 73.104986 54.283222 75.237673 56.909688 75.237673 Z M 56.909688 75.237673 " transform="matrix(0.181446,0,0,0.177666,0.775512,0)"/>
<path style="fill-rule:nonzero;fill:rgb(68.627451%,85.490196%,82.352941%);fill-opacity:1;stroke-width:0.25;stroke-linecap:butt;stroke-linejoin:miter;stroke:rgb(100%,100%,100%);stroke-opacity:1;stroke-miterlimit:4;" d="M 162.011389 53.559022 C 163.733662 53.581008 165.348293 52.679563 166.209429 51.184484 C 167.070566 49.689404 167.070566 47.842541 166.209429 46.347462 C 165.348293 44.874369 163.733662 43.972924 162.011389 43.994911 C 159.384923 44.016897 157.296667 46.149584 157.296667 48.765973 C 157.296667 51.382362 159.384923 53.515049 162.011389 53.559022 Z M 42.076613 98.609282 C 43.60513 98.609282 44.832249 97.37804 44.832249 95.838988 C 44.832249 94.299936 43.60513 93.068694 42.076613 93.068694 C 40.526567 93.068694 39.299448 94.299936 39.299448 95.838988 C 39.299448 97.37804 40.526567 98.609282 42.076613 98.609282 Z M 111.398095 44.478613 C 112.775914 44.500599 114.067618 43.775046 114.756527 42.587777 C 115.466965 41.400508 115.466965 39.927415 114.756527 38.71816 C 114.067618 37.530891 112.775914 36.805337 111.398095 36.827324 C 109.331368 36.871297 107.652152 38.564254 107.652152 40.652968 C 107.652152 42.741682 109.331368 44.43464 111.398095 44.478613 Z M 190.708761 49.733377 C 192.861602 49.733377 194.605403 47.97446 194.605403 45.819787 C 194.605403 43.665114 192.861602 41.928183 190.708761 41.928183 C 188.555919 41.928183 186.812118 43.665114 186.812118 45.819787 C 186.812118 47.97446 188.555919 49.733377 190.708761 49.733377 Z M 138.846819 47.732609 C 140.547563 47.732609 141.94691 46.347462 141.94691 44.632518 C 141.94691 42.917574 140.547563 41.532427 138.846819 41.532427 C 137.124546 41.532427 135.725199 42.917574 135.725199 44.632518 C 135.725199 46.347462 137.124546 47.732609 138.846819 47.732609 Z M 71.161496 88.693388 C 73.40045 88.693388 75.208837 86.890498 75.208837 84.647879 C 75.208837 82.40526 73.40045 80.60237 71.161496 80.60237 C 68.922541 80.60237 67.114154 82.40526 67.114154 84.647879 C 67.114154 86.890498 68.922541 88.693388 71.161496 88.693388 Z M 149.374212 49.073783 C 151.505525 49.073783 153.249326 47.336853 153.249326 45.204166 C 153.249326 43.071479 151.505525 41.334549 149.374212 41.334549 C 147.221371 41.334549 145.499098 43.071479 145.499098 45.204166 C 145.499098 47.336853 147.221371 49.073783 149.374212 49.073783 Z M 176.801407 52.855455 C 178.588265 52.855455 180.00914 51.404348 180.00914 49.645431 C 180.00914 47.864528 178.588265 46.435408 176.801407 46.435408 C 175.036078 46.435408 173.593674 47.864528 173.593674 49.645431 C 173.593674 51.404348 175.036078 52.855455 176.801407 52.855455 Z M 207.11341 59.803177 C 208.706512 59.803177 210.019745 58.505976 210.019745 56.92295 C 210.019745 55.317939 208.706512 54.020737 207.11341 54.020737 C 205.520307 54.020737 204.228603 55.317939 204.228603 56.92295 C 204.228603 58.505976 205.520307 59.803177 207.11341 59.803177 Z M 98.803975 38.542268 C 100.181793 38.542268 101.301271 37.420958 101.301271 36.057798 C 101.301271 34.672651 100.181793 33.551341 98.803975 33.551341 C 97.426157 33.551341 96.306679 34.672651 96.306679 36.057798 C 96.306679 37.420958 97.426157 38.542268 98.803975 38.542268 Z M 121.49492 31.704478 C 123.497062 31.704478 125.133221 30.055494 125.133221 28.032739 C 125.133221 26.031971 123.497062 24.382986 121.49492 24.382986 C 119.471249 24.382986 117.83509 26.031971 117.83509 28.032739 C 117.83509 30.055494 119.471249 31.704478 121.49492 31.704478 Z M 206.467557 51.27243 C 209.13708 51.27243 211.289921 49.117756 211.289921 46.457394 C 211.289921 43.797032 209.13708 41.642359 206.467557 41.642359 C 203.819563 41.642359 201.666722 43.797032 201.666722 46.457394 C 201.666722 49.117756 203.819563 51.27243 206.467557 51.27243 Z M 115.983647 53.229225 C 118.480942 53.229225 120.526141 51.20647 120.526141 48.700013 C 120.526141 46.17157 118.480942 44.148816 115.983647 44.148816 C 113.464823 44.148816 111.419624 46.17157 111.419624 48.700013 C 111.419624 51.20647 113.464823 53.229225 115.983647 53.229225 Z M 132.797336 36.189717 C 135.294631 36.189717 137.33983 34.166962 137.33983 31.660505 C 137.33983 29.154049 135.294631 27.131294 132.797336 27.131294 C 130.30004 27.131294 128.254841 29.154049 128.254841 31.660505 C 128.254841 34.166962 130.30004 36.189717 132.797336 36.189717 Z M 172.129742 41.730305 C 173.808958 41.752291 175.402061 40.850847 176.241669 39.39974 C 177.102805 37.926647 177.102805 36.123757 176.241669 34.650664 C 175.402061 33.199558 173.808958 32.298113 172.129742 32.320099 C 169.546333 32.364072 167.479605 34.452786 167.479605 37.025202 C 167.479605 39.597618 169.546333 41.686332 172.129742 41.730305 Z M 220.762422 71.258124 C 222.377053 71.302096 223.884042 70.466611 224.702121 69.059477 C 225.520201 67.67433 225.520201 65.959386 224.702121 64.574239 C 223.884042 63.167106 222.377053 62.33162 220.762422 62.375593 C 218.35124 62.419566 216.413683 64.398347 216.413683 66.816858 C 216.413683 69.235369 218.35124 71.214151 220.762422 71.258124 Z M 120.461556 17.413278 C 121.860903 17.413278 123.001909 16.269982 123.001909 14.862848 C 123.001909 13.455715 121.860903 12.334405 120.461556 12.334405 C 119.06221 12.334405 117.921204 13.455715 117.921204 14.862848 C 117.921204 16.269982 119.06221 17.413278 120.461556 17.413278 Z M 120.461556 17.413278 " transform="matrix(0.181446,0,0,0.177666,0.775512,0)"/>
<path style="fill-rule:nonzero;fill:rgb(68.627451%,85.490196%,82.352941%);fill-opacity:1;stroke-width:0.25;stroke-linecap:butt;stroke-linejoin:miter;stroke:rgb(100%,100%,100%);stroke-opacity:1;stroke-miterlimit:4;" d="M 161.021082 44.36868 C 163.367679 44.36868 165.283707 42.455858 165.283707 40.103307 C 165.283707 37.750755 163.367679 35.837933 161.021082 35.837933 C 158.696014 35.881906 156.823042 37.772742 156.823042 40.103307 C 156.823042 42.433872 158.696014 44.324708 161.021082 44.36868 Z M 155.316053 36.16773 C 157.210553 36.16773 158.760599 34.628678 158.760599 32.737842 C 158.760599 30.82502 157.210553 29.285967 155.316053 29.285967 C 153.421553 29.285967 151.871508 30.82502 151.871508 32.737842 C 151.871508 34.628678 153.421553 36.16773 155.316053 36.16773 Z M 138.007211 28.670347 C 140.46145 28.670347 142.420535 26.691565 142.420535 24.251068 C 142.420535 21.832557 140.46145 19.853775 138.007211 19.853775 C 135.574501 19.853775 133.593887 21.832557 133.593887 24.251068 C 133.593887 26.691565 135.574501 28.670347 138.007211 28.670347 Z M 89.288417 46.699245 C 92.022526 46.699245 94.239952 44.478613 94.239952 41.752291 C 94.239952 39.003984 92.022526 36.783351 89.288417 36.783351 C 86.554309 36.783351 84.336883 39.003984 84.336883 41.752291 C 84.336883 44.478613 86.554309 46.699245 89.288417 46.699245 Z M 58.739603 39.39974 C 59.708381 39.421726 60.612574 38.916038 61.107728 38.080552 C 61.602881 37.22308 61.602881 36.189717 61.107728 35.332245 C 60.612574 34.496759 59.708381 33.99107 58.739603 34.013057 C 57.254142 34.035043 56.091608 35.244299 56.091608 36.717392 C 56.091608 38.168498 57.254142 39.377754 58.739603 39.39974 Z M 71.549007 37.59685 C 73.486564 37.59685 75.03661 36.035811 75.03661 34.101003 C 75.03661 32.166194 73.486564 30.605155 71.549007 30.605155 C 69.61145 30.605155 68.061404 32.166194 68.061404 34.101003 C 68.061404 36.035811 69.61145 37.59685 71.549007 37.59685 Z M 189.008016 58.769813 C 190.57959 58.7918 192.021994 57.9783 192.797016 56.637126 C 193.593568 55.295952 193.593568 53.624981 192.797016 52.283807 C 192.021994 50.942633 190.57959 50.129133 189.008016 50.15112 C 186.639891 50.15112 184.702334 52.085929 184.702334 54.460467 C 184.702334 56.856991 186.639891 58.769813 189.008016 58.769813 Z M 141.731626 36.057798 C 143.066388 36.057798 144.12128 34.980461 144.12128 33.661273 C 144.12128 32.342086 143.066388 31.264749 141.731626 31.264749 C 140.418393 31.264749 139.341972 32.342086 139.341972 33.661273 C 139.341972 34.980461 140.418393 36.057798 141.731626 36.057798 Z M 90.924577 36.5415 C 93.421872 36.5415 95.467071 34.518745 95.467071 32.012289 C 95.467071 29.505832 93.421872 27.461091 90.924577 27.461091 C 88.427281 27.461091 86.382082 29.505832 86.382082 32.012289 C 86.382082 34.518745 88.427281 36.5415 90.924577 36.5415 Z M 24.315674 92.167249 C 26.511572 92.167249 28.276901 90.408332 28.276901 88.231672 C 28.276901 86.055013 26.511572 84.296096 24.315674 84.296096 C 22.141304 84.296096 20.375975 86.055013 20.375975 88.231672 C 20.375975 90.408332 22.141304 92.167249 24.315674 92.167249 Z M 34.843067 93.53041 C 37.361891 93.53041 39.428618 91.485669 39.428618 88.957225 C 39.428618 86.428782 37.361891 84.362055 34.843067 84.362055 C 32.302714 84.362055 30.257515 86.428782 30.257515 88.957225 C 30.257515 91.485669 32.302714 93.53041 34.843067 93.53041 Z M 71.893462 53.119292 C 74.326172 53.119292 76.306786 51.140511 76.306786 48.700013 C 76.306786 46.281503 74.326172 44.302721 71.893462 44.302721 C 69.460751 44.302721 67.480137 46.281503 67.480137 48.700013 C 67.480137 51.140511 69.460751 53.119292 71.893462 53.119292 Z M 25.628907 82.361287 C 27.501879 82.361287 29.051924 80.822235 29.051924 78.931399 C 29.051924 77.040563 27.501879 75.523497 25.628907 75.523497 C 23.734407 75.523497 22.205889 77.040563 22.205889 78.931399 C 22.205889 80.822235 23.734407 82.361287 25.628907 82.361287 Z M 163.518378 32.715856 C 165.585105 32.715856 167.264321 31.044884 167.264321 28.978157 C 167.264321 26.91143 165.585105 25.218472 163.518378 25.218472 C 161.45165 25.218472 159.772434 26.91143 159.772434 28.978157 C 159.772434 31.044884 161.45165 32.715856 163.518378 32.715856 Z M 59.342398 48.436176 C 61.21537 48.436176 62.743887 46.897124 62.743887 45.028274 C 62.743887 43.137439 61.21537 41.620373 59.342398 41.620373 C 57.447898 41.620373 55.919381 43.137439 55.919381 45.028274 C 55.919381 46.897124 57.447898 48.436176 59.342398 48.436176 Z M 59.342398 48.436176 " transform="matrix(0.181446,0,0,0.177666,0.775512,0)"/>
<path style="fill-rule:nonzero;fill:rgb(68.627451%,85.490196%,82.352941%);fill-opacity:1;stroke-width:0.25;stroke-linecap:butt;stroke-linejoin:miter;stroke:rgb(100%,100%,100%);stroke-opacity:1;stroke-miterlimit:4;" d="M 42.830107 89.440928 C 45.456573 89.440928 47.609414 87.308241 47.609414 84.669865 C 47.609414 82.03149 45.456573 79.898803 42.830107 79.898803 C 40.182112 79.898803 38.0508 82.03149 38.0508 84.669865 C 38.0508 87.308241 40.182112 89.440928 42.830107 89.440928 Z M 198.093005 56.944937 C 199.772222 56.966923 201.343795 56.087465 202.183404 54.614372 C 203.04454 53.163265 203.04454 51.360375 202.183404 49.909269 C 201.343795 48.436176 199.772222 47.556717 198.093005 47.578704 C 195.509596 47.578704 193.399812 49.689404 193.399812 52.26182 C 193.399812 54.856223 195.509596 56.944937 198.093005 56.944937 Z M 214.949751 56.395275 C 216.112285 56.417262 217.210234 55.801641 217.791501 54.790263 C 218.372768 53.778886 218.372768 52.547644 217.791501 51.536267 C 217.210234 50.546876 216.112285 49.931255 214.949751 49.953242 C 213.20595 49.975228 211.785075 51.404348 211.785075 53.163265 C 211.785075 54.922182 213.20595 56.351302 214.949751 56.395275 Z M 103.690924 48.414189 C 105.671538 48.414189 107.26464 46.809178 107.26464 44.830396 C 107.26464 42.851615 105.671538 41.246603 103.690924 41.246603 C 101.71031 41.246603 100.09568 42.851615 100.09568 44.830396 C 100.09568 46.809178 101.71031 48.414189 103.690924 48.414189 Z M 182.377266 44.390667 C 183.475215 44.412653 184.48705 43.841005 185.02526 42.895587 C 185.584999 41.972156 185.584999 40.806874 185.02526 39.861456 C 184.48705 38.938024 183.475215 38.366376 182.377266 38.388363 C 180.741106 38.410349 179.427873 39.751523 179.427873 41.378522 C 179.427873 43.027506 180.741106 44.36868 182.377266 44.390667 Z M 181.085561 36.871297 C 183.798141 36.871297 185.994039 34.672651 185.994039 31.968316 C 185.994039 29.263981 183.798141 27.065335 181.085561 27.065335 C 178.39451 27.065335 176.198612 29.263981 176.198612 31.968316 C 176.198612 34.672651 178.39451 36.871297 181.085561 36.871297 Z M 120.719897 45.204166 C 123.131079 45.204166 125.090165 43.247371 125.090165 40.82886 C 125.090165 38.410349 123.131079 36.453554 120.719897 36.453554 C 118.308715 36.453554 116.34963 38.410349 116.34963 40.82886 C 116.34963 43.247371 118.308715 45.204166 120.719897 45.204166 Z M 213.227478 66.377129 C 215.315734 66.377129 216.99495 64.684171 216.99495 62.617444 C 216.99495 60.550717 215.315734 58.857759 213.227478 58.857759 C 211.160751 58.857759 209.481535 60.550717 209.481535 62.617444 C 209.481535 64.684171 211.160751 66.377129 213.227478 66.377129 Z M 33.938873 100.280253 C 35.144464 100.280253 36.134771 99.290863 36.134771 98.081607 C 36.134771 96.872352 35.144464 95.882961 33.938873 95.882961 C 32.711754 95.882961 31.742975 96.872352 31.742975 98.081607 C 31.742975 99.290863 32.711754 100.280253 33.938873 100.280253 Z M 80.224957 39.201862 C 82.506968 39.201862 84.336883 37.354999 84.336883 35.090393 C 84.336883 32.825788 82.506968 30.978925 80.224957 30.978925 C 77.964473 30.978925 76.11303 32.825788 76.11303 35.090393 C 76.11303 37.354999 77.964473 39.201862 80.224957 39.201862 Z M 110.25709 32.495991 C 111.311982 32.517977 112.302289 31.968316 112.840499 31.044884 C 113.378709 30.121453 113.378709 29.000143 112.840499 28.076712 C 112.302289 27.153281 111.311982 26.603619 110.25709 26.625606 C 108.642459 26.647592 107.372282 27.96678 107.372282 29.571791 C 107.372282 31.154817 108.642459 32.474004 110.25709 32.495991 Z M 195.509596 41.554413 C 197.554795 41.554413 199.212483 39.883442 199.212483 37.838701 C 199.212483 35.815947 197.554795 34.144976 195.509596 34.144976 C 193.464397 34.144976 191.80671 35.815947 191.80671 37.838701 C 191.80671 39.883442 193.464397 41.554413 195.509596 41.554413 Z M 102.033237 26.559646 C 104.573589 26.559646 106.640317 24.514905 106.640317 21.964476 C 106.640317 19.436032 104.573589 17.369305 102.033237 17.369305 C 99.514413 17.369305 97.447685 19.436032 97.447685 21.964476 C 97.447685 24.514905 99.514413 26.559646 102.033237 26.559646 Z M 102.033237 26.559646 " transform="matrix(0.181446,0,0,0.177666,0.775512,0)"/>
<path style="fill-rule:nonzero;fill:rgb(68.627451%,85.490196%,82.352941%);fill-opacity:1;stroke-width:0.25;stroke-linecap:butt;stroke-linejoin:miter;stroke:rgb(100%,100%,100%);stroke-opacity:1;stroke-miterlimit:4;" d="M 174.153413 30.956939 C 176.500009 30.956939 178.39451 29.044116 178.39451 26.713551 C 178.39451 24.361 176.500009 22.448178 174.153413 22.448178 C 171.806816 22.448178 169.890787 24.361 169.890787 26.713551 C 169.890787 29.044116 171.806816 30.956939 174.153413 30.956939 Z M 81.322905 26.427727 C 83.217406 26.427727 84.724394 24.910662 84.724394 23.019826 C 84.724394 21.150977 83.217406 19.611924 81.322905 19.611924 C 79.449934 19.611924 77.921417 21.150977 77.921417 23.019826 C 77.921417 24.910662 79.449934 26.427727 81.322905 26.427727 Z M 89.503702 23.789352 C 91.570429 23.789352 93.249645 22.118381 93.249645 20.029667 C 93.249645 17.96294 91.570429 16.291968 89.503702 16.291968 C 87.436974 16.291968 85.73623 17.96294 85.73623 20.029667 C 85.73623 22.118381 87.436974 23.789352 89.503702 23.789352 Z M 147.393598 19.084249 C 149.826309 19.084249 151.806922 17.105467 151.806922 14.686957 C 151.806922 12.246459 149.826309 10.267678 147.393598 10.267678 C 144.960888 10.267678 143.001802 12.246459 143.001802 14.686957 C 143.001802 17.105467 144.960888 19.084249 147.393598 19.084249 Z M 129.697244 20.029667 C 131.591745 20.029667 133.120262 18.490615 133.120262 16.599779 C 133.120262 14.686957 131.591745 13.169891 129.697244 13.169891 C 127.802744 13.169891 126.252699 14.686957 126.252699 16.599779 C 126.252699 18.490615 127.802744 20.029667 129.697244 20.029667 Z M 156.198718 24.207095 C 157.145968 24.229081 158.028633 23.723393 158.523786 22.909893 C 158.997412 22.096394 158.997412 21.085017 158.523786 20.249532 C 158.028633 19.436032 157.145968 18.95233 156.198718 18.95233 C 154.777843 18.996303 153.636837 20.161586 153.636837 21.590706 C 153.636837 23.019826 154.777843 24.185108 156.198718 24.207095 Z M 156.198718 24.207095 " transform="matrix(0.181446,0,0,0.177666,0.775512,0)"/>
<path style="fill-rule:nonzero;fill:rgb(68.627451%,85.490196%,82.352941%);fill-opacity:1;stroke-width:0.25;stroke-linecap:butt;stroke-linejoin:miter;stroke:rgb(100%,100%,100%);stroke-opacity:1;stroke-miterlimit:4;" d="M 147.436655 28.230617 C 150.127706 28.230617 152.302076 26.053958 152.302076 23.371609 C 152.302076 20.689261 150.127706 18.512601 147.436655 18.512601 C 144.745604 18.512601 142.571234 20.689261 142.571234 23.371609 C 142.571234 26.053958 144.745604 28.230617 147.436655 28.230617 Z M 166.747639 23.503528 C 168.599083 23.503528 170.106071 22.008449 170.106071 20.161586 C 170.106071 18.292736 168.599083 16.797657 166.747639 16.797657 C 164.896196 16.797657 163.389207 18.292736 163.389207 20.161586 C 163.389207 22.008449 164.896196 23.503528 166.747639 23.503528 Z M 15.919594 105.491045 C 18.26619 105.491045 20.139162 103.600209 20.139162 101.269644 C 20.139162 98.939079 18.26619 97.048244 15.919594 97.048244 C 13.594525 97.048244 11.700025 98.939079 11.700025 101.269644 C 11.700025 103.600209 13.594525 105.491045 15.919594 105.491045 Z M 111.721021 23.217704 C 112.969669 23.217704 114.003033 22.206327 114.003033 20.953098 C 114.003033 19.69987 112.969669 18.666506 111.721021 18.666506 C 110.472374 18.666506 109.43901 19.69987 109.43901 20.953098 C 109.43901 22.206327 110.472374 23.217704 111.721021 23.217704 Z M 189.804567 33.639287 C 191.333084 33.639287 192.560204 32.408045 192.560204 30.890979 C 192.560204 29.373913 191.333084 28.142671 189.804567 28.142671 C 188.297579 28.142671 187.070459 29.373913 187.070459 30.890979 C 187.070459 32.408045 188.297579 33.639287 189.804567 33.639287 Z M 138.545421 19.897748 C 140.741319 19.897748 142.506649 18.138831 142.506649 15.940185 C 142.506649 13.741539 140.741319 11.982622 138.545421 11.982622 C 136.349523 11.982622 134.584194 13.741539 134.584194 15.940185 C 134.584194 18.138831 136.349523 19.897748 138.545421 19.897748 Z M 47.953869 80.140654 C 50.472693 80.140654 52.517892 78.095913 52.517892 75.56747 C 52.517892 73.061013 50.472693 70.994286 47.953869 70.994286 C 45.435045 70.994286 43.368317 73.061013 43.368317 75.56747 C 43.368317 78.095913 45.435045 80.140654 47.953869 80.140654 Z M 47.953869 80.140654 " transform="matrix(0.181446,0,0,0.177666,0.775512,0)"/>
<path style=" stroke:none;fill-rule:nonzero;fill:rgb(100%,100%,100%);fill-opacity:1;" d="M 32.410156 10.402344 L 31.554688 10.382812 L 30.699219 10.402344 L 29.839844 10.460938 L 28.984375 10.558594 L 28.132812 10.691406 L 27.277344 10.859375 L 26.425781 11.0625 L 25.574219 11.296875 L 24.722656 11.558594 L 23.875 11.847656 L 23.027344 12.15625 L 22.183594 12.484375 L 21.339844 12.828125 L 20.496094 13.183594 L 19.65625 13.550781 L 18.8125 13.917969 L 17.136719 14.664062 L 16.300781 15.035156 L 15.460938 15.398438 L 14.628906 15.753906 L 13.792969 16.101562 L 12.957031 16.433594 L 12.125 16.753906 L 11.292969 17.058594 L 10.460938 17.351562 L 9.628906 17.621094 L 8.796875 17.878906 L 7.964844 18.117188 L 7.132812 18.339844 L 6.304688 18.546875 L 5.472656 18.734375 L 4.640625 18.910156 L 3.808594 19.066406 L 2.976562 19.210938 L 2.066406 19.351562 L 2.023438 19.621094 C 1.753906 21.460938 1.722656 23.328125 1.933594 25.175781 L 1.992188 25.679688 L 3.199219 25.15625 L 4.039062 24.785156 L 5.714844 24.039062 L 6.550781 23.667969 L 7.386719 23.304688 L 8.222656 22.953125 L 9.058594 22.613281 L 9.890625 22.289062 L 10.71875 21.988281 L 11.550781 21.707031 L 12.378906 21.449219 L 13.207031 21.222656 L 14.03125 21.027344 L 14.855469 20.863281 L 15.675781 20.734375 L 16.5 20.644531 L 17.320312 20.585938 L 18.140625 20.570312 L 18.960938 20.589844 L 19.78125 20.644531 L 20.601562 20.738281 L 21.425781 20.867188 L 22.246094 21.03125 L 23.070312 21.226562 L 23.898438 21.453125 L 24.722656 21.710938 L 25.550781 21.988281 L 26.382812 22.292969 L 27.214844 22.617188 L 28.046875 22.953125 L 28.878906 23.308594 L 29.714844 23.667969 L 30.550781 24.039062 L 32.226562 24.785156 L 33.066406 25.15625 L 33.90625 25.519531 L 34.746094 25.878906 L 35.589844 26.226562 L 36.429688 26.5625 L 37.273438 26.886719 L 38.117188 27.195312 L 38.960938 27.492188 L 39.804688 27.769531 L 40.652344 28.03125 L 41.496094 28.273438 L 42.34375 28.5 L 43.1875 28.707031 L 44.03125 28.902344 L 45.222656 29.148438 L 45.320312 28.816406 C 45.878906 26.929688 46.179688 24.980469 46.203125 23.015625 L 46.207031 22.742188 L 46.203125 22.46875 L 46.199219 22.171875 C 46.125 19.507812 45.554688 16.882812 44.515625 14.421875 L 44.4375 14.242188 L 44.300781 13.929688 L 43.4375 13.550781 L 42.597656 13.183594 L 41.753906 12.828125 L 40.910156 12.484375 L 40.066406 12.15625 L 39.222656 11.847656 L 38.375 11.5625 L 37.527344 11.300781 L 36.675781 11.066406 L 35.824219 10.863281 L 34.972656 10.695312 L 34.121094 10.558594 L 33.265625 10.464844 Z M 31.542969 10.757812 L 32.382812 10.777344 L 33.222656 10.832031 L 34.058594 10.929688 L 34.898438 11.058594 L 35.734375 11.226562 L 36.574219 11.425781 L 37.414062 11.65625 L 38.25 11.914062 L 39.089844 12.199219 L 39.925781 12.503906 L 40.765625 12.828125 L 41.605469 13.171875 L 42.441406 13.527344 L 43.28125 13.890625 L 44.011719 14.210938 C 45.128906 16.730469 45.742188 19.433594 45.816406 22.179688 L 45.824219 22.46875 L 45.824219 23.011719 C 45.796875 24.941406 45.503906 26.859375 44.953125 28.710938 L 44.117188 28.539062 L 43.28125 28.347656 L 42.441406 28.140625 L 41.605469 27.914062 L 40.765625 27.675781 L 39.925781 27.414062 L 39.089844 27.140625 L 38.25 26.847656 L 37.414062 26.539062 L 36.574219 26.21875 L 35.734375 25.882812 L 34.898438 25.535156 L 34.058594 25.179688 L 33.222656 24.816406 L 32.382812 24.445312 L 30.707031 23.699219 L 29.867188 23.328125 L 29.03125 22.964844 L 28.191406 22.609375 L 27.351562 22.269531 L 26.515625 21.945312 L 25.675781 21.636719 L 24.839844 21.355469 L 24 21.09375 L 23.160156 20.863281 L 22.324219 20.664062 L 21.484375 20.5 L 20.648438 20.367188 L 19.808594 20.273438 L 18.96875 20.214844 L 18.132812 20.195312 L 17.292969 20.214844 L 16.457031 20.273438 L 15.617188 20.367188 L 14.777344 20.5 L 13.941406 20.664062 L 13.101562 20.863281 L 12.265625 21.09375 L 11.425781 21.355469 L 10.585938 21.636719 L 9.75 21.945312 L 8.910156 22.269531 L 8.074219 22.609375 L 7.234375 22.964844 L 6.394531 23.328125 L 5.558594 23.699219 L 3.882812 24.445312 L 3.042969 24.816406 L 2.3125 25.132812 C 2.105469 23.316406 2.132812 21.484375 2.402344 19.675781 L 3.042969 19.578125 L 3.882812 19.433594 L 4.71875 19.273438 L 5.558594 19.097656 L 6.394531 18.910156 L 7.234375 18.699219 L 8.074219 18.476562 L 8.910156 18.234375 L 9.75 17.976562 L 10.585938 17.699219 L 11.425781 17.410156 L 12.265625 17.101562 L 13.101562 16.78125 L 13.941406 16.445312 L 14.777344 16.097656 L 15.617188 15.738281 L 16.457031 15.375 L 17.292969 15.003906 L 18.96875 14.257812 L 19.808594 13.890625 L 20.648438 13.527344 L 21.484375 13.171875 L 22.324219 12.828125 L 23.160156 12.503906 L 24 12.199219 L 24.839844 11.914062 L 25.675781 11.65625 L 26.515625 11.425781 L 27.351562 11.226562 L 28.191406 11.058594 L 29.03125 10.929688 L 29.867188 10.832031 L 30.707031 10.777344 Z M 31.542969 10.757812 "/>
<path style="fill-rule:nonzero;fill:rgb(49.019608%,69.019608%,73.72549%);fill-opacity:1;stroke-width:1;stroke-linecap:butt;stroke-linejoin:miter;stroke:rgb(100%,100%,100%);stroke-opacity:1;stroke-miterlimit:4;" d="M 169.567861 60.045028 L 174.217998 60.15496 L 178.868135 60.484757 L 183.496743 61.012432 L 188.14688 61.759972 L 192.775488 62.70539 L 197.425625 63.826699 L 202.054233 65.123901 L 206.70437 66.575007 L 211.332978 68.180019 L 215.961586 69.916949 L 220.590195 71.741826 L 225.218803 73.676634 L 229.847411 75.677402 L 234.454491 77.722143 L 238.67406 79.612979 C 244.981884 94.080071 248.42643 109.646486 248.749356 125.432766 L 248.770884 126.46613 L 248.770884 129.522248 C 248.620186 140.603425 246.962498 151.574669 243.840878 162.194131 L 238.760173 161.116794 L 234.131565 160.039457 L 229.502957 158.874175 L 224.874348 157.59896 L 220.24574 156.235799 L 215.617132 154.784693 L 210.988524 153.223654 L 206.359915 151.574669 L 201.731307 149.859725 L 197.102699 148.034849 L 192.47409 146.144013 L 187.86701 144.187218 L 183.238402 142.18645 L 173.981185 138.052995 L 164.745497 133.853581 L 160.138417 131.764867 L 155.509809 129.720126 L 150.902729 127.719358 L 146.295649 125.806536 L 141.688569 123.98166 L 137.059961 122.266716 L 132.452881 120.661704 L 127.845801 119.210597 L 123.26025 117.913396 L 118.65317 116.814073 L 114.04609 115.868655 L 109.43901 115.143102 L 104.853458 114.59344 L 100.246379 114.28563 L 95.660827 114.175697 L 91.053747 114.28563 L 86.468196 114.59344 L 81.861116 115.143102 L 77.275564 115.868655 L 72.668484 116.814073 L 68.061404 117.913396 L 63.454325 119.210597 L 58.847245 120.661704 L 54.240165 122.266716 L 49.633085 123.98166 L 45.026005 125.806536 L 40.418925 127.719358 L 35.790317 129.720126 L 31.183237 131.764867 L 26.554628 133.853581 L 17.31894 138.052995 L 8.061724 142.18645 C 6.791547 131.588975 6.963775 120.881568 8.51382 110.30608 L 12.410463 109.690459 L 17.017542 108.87696 L 21.624622 107.997502 L 26.253231 107.008111 L 30.860311 105.930774 L 35.467391 104.765492 L 40.07447 103.512263 L 44.68155 102.149103 L 49.28863 100.697996 L 53.917239 99.158944 L 58.524318 97.509959 L 63.131398 95.795015 L 67.738478 93.970139 L 72.367087 92.10129 L 76.974166 90.144494 L 81.602775 88.143726 L 86.209855 86.076999 L 90.838463 84.010272 L 100.074151 79.810857 L 104.70276 77.722143 L 109.309839 75.677402 L 113.938448 73.676634 L 118.567056 71.741826 L 123.195664 69.916949 L 127.824273 68.180019 L 132.452881 66.575007 L 137.103018 65.123901 L 141.731626 63.826699 L 146.360234 62.70539 L 151.010371 61.759972 L 155.638979 61.012432 L 160.289116 60.484757 L 164.939253 60.15496 Z M 169.567861 60.045028 " transform="matrix(0.181446,0,0,0.177666,0.775512,0)"/>
<path style=" stroke:none;fill-rule:nonzero;fill:rgb(36.078431%,49.019608%,63.529412%);fill-opacity:1;" d="M 18.132812 20.605469 L 18.96875 20.625 L 19.808594 20.683594 L 20.648438 20.777344 L 21.484375 20.910156 L 22.324219 21.074219 L 23.160156 21.273438 L 24 21.503906 L 24.839844 21.765625 L 25.675781 22.046875 L 26.515625 22.355469 L 27.351562 22.679688 L 28.191406 23.019531 L 29.03125 23.375 L 29.867188 23.738281 L 30.707031 24.109375 L 31.542969 24.480469 L 32.382812 24.855469 L 33.222656 25.226562 L 34.058594 25.589844 L 34.898438 25.945312 L 35.734375 26.292969 L 36.574219 26.628906 L 37.414062 26.953125 L 38.25 27.257812 L 39.089844 27.550781 L 39.925781 27.824219 L 40.765625 28.085938 L 41.605469 28.328125 L 42.441406 28.550781 L 43.28125 28.757812 L 44.117188 28.949219 L 44.835938 29.097656 C 42.910156 35.152344 38.335938 40.058594 32.351562 42.484375 C 21.214844 47 8.449219 41.820312 3.835938 30.917969 C 3.105469 29.191406 2.609375 27.375 2.359375 25.523438 L 3.042969 25.226562 L 3.882812 24.855469 L 4.71875 24.480469 L 5.558594 24.109375 L 6.394531 23.738281 L 7.234375 23.375 L 8.074219 23.019531 L 8.910156 22.679688 L 9.75 22.355469 L 10.585938 22.046875 L 11.425781 21.765625 L 12.265625 21.503906 L 13.101562 21.273438 L 13.941406 21.074219 L 14.777344 20.910156 L 15.617188 20.777344 L 16.457031 20.683594 L 17.292969 20.625 Z M 18.132812 20.605469 "/>
<path style=" stroke:none;fill-rule:nonzero;fill:rgb(26.666667%,28.235294%,46.27451%);fill-opacity:1;" d="M 19.808594 26.140625 L 19.808594 28.894531 L 24.839844 28.894531 L 24.839844 32.695312 L 29.867188 32.695312 L 29.867188 35.292969 L 34.898438 35.292969 L 34.898438 36.390625 L 39.925781 36.390625 L 39.925781 37.351562 C 33.714844 43.84375 24.042969 45.890625 15.648438 42.484375 C 10.960938 40.582031 7.097656 37.140625 4.71875 32.753906 L 4.71875 30.1875 L 9.75 30.1875 L 9.75 26.757812 L 14.777344 26.757812 L 14.777344 26.140625 Z M 19.808594 26.140625 "/>
<path style=" stroke:none;fill-rule:nonzero;fill:rgb(100%,100%,100%);fill-opacity:1;" d="M 19.980469 25.972656 L 19.980469 28.722656 L 25.011719 28.722656 L 25.011719 32.527344 L 30.039062 32.527344 L 30.039062 35.125 L 35.070312 35.125 L 35.070312 36.222656 L 40.097656 36.222656 L 40.097656 37.167969 C 39.984375 37.289062 39.871094 37.410156 39.753906 37.527344 L 39.753906 36.558594 L 35.070312 36.558594 L 35.070312 41.15625 C 34.957031 41.222656 34.839844 41.289062 34.726562 41.351562 L 34.726562 35.460938 L 30.039062 35.460938 L 30.039062 43.277344 C 29.925781 43.308594 29.8125 43.339844 29.695312 43.371094 L 29.695312 32.863281 L 25.011719 32.863281 L 25.011719 44.085938 C 24.894531 44.09375 24.78125 44.097656 24.667969 44.101562 L 24.667969 29.0625 L 19.980469 29.0625 L 19.980469 43.746094 C 19.867188 43.722656 19.75 43.703125 19.636719 43.679688 L 19.636719 26.308594 L 14.949219 26.308594 L 14.949219 42.1875 C 14.835938 42.136719 14.722656 42.082031 14.605469 42.03125 L 14.605469 26.925781 L 9.921875 26.925781 L 9.921875 39.070312 C 9.804688 38.972656 9.691406 38.875 9.578125 38.777344 L 9.578125 30.355469 L 4.890625 30.355469 L 4.890625 33.0625 C 4.773438 32.855469 4.660156 32.644531 4.546875 32.429688 L 4.546875 30.019531 L 9.578125 30.019531 L 9.578125 26.589844 L 14.605469 26.589844 L 14.605469 25.972656 Z M 19.980469 25.972656 "/>
<path style=" stroke:none;fill-rule:nonzero;fill:rgb(26.666667%,28.235294%,46.27451%);fill-opacity:1;" d="M 24 0 C 36.710938 0 47.0625 10.007812 47.222656 22.453125 L 47.222656 23.03125 C 47.0625 35.476562 36.710938 45.480469 24 45.480469 C 11.171875 45.480469 0.777344 35.300781 0.777344 22.742188 C 0.777344 10.179688 11.171875 0 24 0 Z M 24 0.746094 C 11.59375 0.746094 1.539062 10.59375 1.539062 22.742188 C 1.539062 34.886719 11.59375 44.734375 24 44.734375 C 36.292969 44.734375 46.304688 35.058594 46.460938 23.019531 L 46.460938 22.460938 C 46.304688 10.425781 36.292969 0.746094 24 0.746094 Z M 24 0.746094 "/>
</g>
</svg>
