<?xml version="1.0" encoding="UTF-8"?>
<svg xmlns="http://www.w3.org/2000/svg" xmlns:xlink="http://www.w3.org/1999/xlink" width="48px" height="48px" viewBox="0 0 48 48" version="1.1">
<defs>
<linearGradient id="linear0" gradientUnits="userSpaceOnUse" x1="64" y1="23.5" x2="64" y2="104.5" gradientTransform="matrix(0.375,0,0,0.375,0,0)">
<stop offset="0" style="stop-color:rgb(75.686275%,87.843137%,0%);stop-opacity:1;"/>
<stop offset="1" style="stop-color:rgb(54.901961%,68.627451%,0%);stop-opacity:1;"/>
</linearGradient>
</defs>
<g id="surface1">
<path style=" stroke:none;fill-rule:evenodd;fill:url(#linear0);" d="M 16.5 8.8125 C 14.117188 8.8125 12.1875 10.742188 12.1875 13.125 L 12.1875 20.4375 C 12.1875 20.957031 12.605469 21.375 13.125 21.375 C 13.644531 21.375 14.0625 20.957031 14.0625 20.4375 L 14.0625 13.125 C 14.0625 11.777344 15.152344 10.6875 16.5 10.6875 L 27.5625 10.6875 L 27.5625 15.375 C 27.5625 16.515625 28.484375 17.4375 29.625 17.4375 L 33.9375 17.4375 L 33.9375 34.875 C 33.9375 36.222656 32.847656 37.3125 31.5 37.3125 L 16.5 37.3125 C 15.152344 37.3125 14.0625 36.222656 14.0625 34.875 L 14.0625 33.75 C 14.0625 33.230469 13.644531 32.8125 13.125 32.8125 C 12.605469 32.8125 12.1875 33.230469 12.1875 33.75 L 12.1875 34.875 C 12.1875 37.257812 14.117188 39.1875 16.5 39.1875 L 31.5 39.1875 C 33.882812 39.1875 35.8125 37.257812 35.8125 34.875 L 35.8125 16.863281 C 35.8125 15.960938 35.472656 15.09375 34.859375 14.433594 L 33.707031 13.195312 L 33.675781 13.164062 L 30.273438 9.832031 C 29.605469 9.179688 28.710938 8.8125 27.78125 8.8125 Z M 33.347656 15.5625 L 32.347656 14.488281 L 29.4375 11.636719 L 29.4375 15.375 C 29.4375 15.480469 29.519531 15.5625 29.625 15.5625 Z M 13.558594 28.351562 C 13.496094 28.289062 13.441406 28.242188 13.394531 28.207031 C 13.328125 28.148438 13.277344 28.117188 13.238281 28.117188 C 13.203125 28.117188 13.160156 28.136719 13.109375 28.171875 L 12.457031 28.792969 C 12.402344 28.847656 12.375 28.894531 12.375 28.933594 C 12.375 28.976562 12.402344 29.023438 12.457031 29.085938 L 12.472656 29.101562 C 12.476562 29.101562 12.484375 29.105469 12.488281 29.113281 L 12.503906 29.121094 C 12.621094 29.257812 12.761719 29.382812 12.914062 29.496094 C 13.070312 29.613281 13.234375 29.710938 13.410156 29.796875 C 13.589844 29.882812 13.773438 29.949219 13.964844 30 C 14.15625 30.050781 14.347656 30.074219 14.542969 30.074219 C 14.847656 30.074219 15.132812 30.03125 15.398438 29.949219 C 15.664062 29.859375 15.890625 29.734375 16.085938 29.578125 C 16.28125 29.421875 16.433594 29.230469 16.546875 29.011719 C 16.660156 28.785156 16.71875 28.535156 16.71875 28.261719 C 16.71875 28 16.671875 27.78125 16.582031 27.601562 C 16.492188 27.414062 16.363281 27.257812 16.199219 27.128906 C 16.039062 26.992188 15.847656 26.878906 15.621094 26.78125 C 15.398438 26.6875 15.152344 26.59375 14.886719 26.503906 C 14.613281 26.414062 14.40625 26.332031 14.265625 26.257812 C 14.125 26.183594 14.054688 26.074219 14.054688 25.933594 C 14.054688 25.789062 14.113281 25.691406 14.234375 25.636719 C 14.355469 25.578125 14.496094 25.550781 14.664062 25.550781 C 14.824219 25.550781 14.972656 25.59375 15.113281 25.679688 C 15.257812 25.761719 15.378906 25.84375 15.480469 25.925781 L 15.515625 25.957031 C 15.550781 25.988281 15.582031 26.011719 15.609375 26.03125 C 15.636719 26.050781 15.671875 26.0625 15.703125 26.0625 C 15.75 26.0625 15.792969 26.042969 15.832031 26.003906 L 16.410156 25.386719 C 16.476562 25.3125 16.507812 25.253906 16.507812 25.207031 C 16.507812 25.136719 16.445312 25.050781 16.320312 24.945312 C 16.195312 24.839844 16.046875 24.738281 15.878906 24.636719 C 15.675781 24.523438 15.46875 24.441406 15.253906 24.390625 C 15.046875 24.339844 14.828125 24.316406 14.601562 24.316406 C 14.300781 24.316406 14.03125 24.351562 13.785156 24.425781 C 13.539062 24.496094 13.328125 24.601562 13.15625 24.734375 C 12.984375 24.871094 12.851562 25.03125 12.757812 25.222656 C 12.664062 25.414062 12.613281 25.625 12.613281 25.859375 C 12.613281 26.300781 12.761719 26.664062 13.058594 26.949219 C 13.359375 27.234375 13.808594 27.480469 14.414062 27.691406 C 14.484375 27.714844 14.566406 27.746094 14.65625 27.78125 C 14.75 27.808594 14.835938 27.851562 14.917969 27.898438 C 15.003906 27.945312 15.074219 27.996094 15.136719 28.058594 C 15.195312 28.117188 15.226562 28.1875 15.226562 28.265625 C 15.226562 28.40625 15.175781 28.53125 15.082031 28.636719 C 14.992188 28.738281 14.816406 28.792969 14.558594 28.792969 C 14.421875 28.792969 14.289062 28.769531 14.160156 28.726562 C 14.035156 28.675781 13.910156 28.609375 13.785156 28.523438 C 13.699219 28.460938 13.625 28.40625 13.558594 28.351562 Z M 17.605469 26.109375 C 17.453125 26.453125 17.378906 26.824219 17.378906 27.226562 C 17.378906 27.558594 17.433594 27.878906 17.535156 28.183594 C 17.640625 28.484375 17.785156 28.757812 17.972656 29.003906 C 18.160156 29.246094 18.386719 29.453125 18.648438 29.625 C 18.90625 29.796875 19.191406 29.917969 19.5 29.992188 L 19.5 31.011719 C 19.5 31.121094 19.558594 31.175781 19.667969 31.175781 L 20.777344 31.175781 C 20.898438 31.175781 20.957031 31.121094 20.957031 31.011719 L 20.957031 30 C 21.273438 29.925781 21.558594 29.800781 21.820312 29.632812 C 22.085938 29.460938 22.3125 29.253906 22.5 29.011719 C 22.691406 28.765625 22.839844 28.488281 22.945312 28.183594 C 23.054688 27.878906 23.109375 27.558594 23.109375 27.226562 C 23.109375 26.824219 23.035156 26.453125 22.882812 26.109375 C 22.734375 25.757812 22.53125 25.453125 22.269531 25.191406 C 22.007812 24.933594 21.703125 24.726562 21.355469 24.578125 C 21.007812 24.425781 20.640625 24.351562 20.246094 24.351562 C 19.847656 24.351562 19.476562 24.425781 19.125 24.578125 C 18.777344 24.726562 18.472656 24.933594 18.210938 25.191406 C 17.957031 25.453125 17.753906 25.757812 17.605469 26.109375 Z M 18.933594 27.800781 C 18.863281 27.621094 18.828125 27.425781 18.828125 27.21875 C 18.828125 27.011719 18.863281 26.820312 18.933594 26.640625 C 19 26.460938 19.097656 26.300781 19.222656 26.167969 C 19.347656 26.03125 19.5 25.925781 19.675781 25.851562 C 19.847656 25.773438 20.039062 25.734375 20.246094 25.734375 C 20.449219 25.734375 20.640625 25.773438 20.8125 25.851562 C 20.988281 25.925781 21.140625 26.03125 21.265625 26.167969 C 21.390625 26.300781 21.488281 26.460938 21.558594 26.640625 C 21.625 26.820312 21.660156 27.011719 21.660156 27.21875 C 21.660156 27.425781 21.625 27.621094 21.558594 27.800781 C 21.488281 27.984375 21.390625 28.140625 21.265625 28.273438 C 21.140625 28.40625 20.988281 28.511719 20.8125 28.589844 C 20.640625 28.664062 20.449219 28.703125 20.246094 28.703125 C 20.039062 28.703125 19.847656 28.664062 19.675781 28.589844 C 19.5 28.511719 19.347656 28.40625 19.222656 28.273438 C 19.097656 28.140625 19 27.984375 18.933594 27.800781 Z M 24.007812 29.835938 L 24.007812 24.601562 C 24.007812 24.546875 24.019531 24.503906 24.050781 24.480469 C 24.085938 24.449219 24.125 24.433594 24.164062 24.433594 L 25.289062 24.433594 C 25.394531 24.433594 25.445312 24.488281 25.445312 24.601562 L 25.445312 28.671875 L 27.53125 28.671875 C 27.636719 28.671875 27.6875 28.726562 27.6875 28.835938 L 27.6875 29.835938 C 27.6875 29.945312 27.636719 30 27.53125 30 L 24.164062 30 C 24.058594 30 24.007812 29.945312 24.007812 29.835938 Z M 24.007812 29.835938 "/>
</g>
</svg>
