<?xml version="1.0" encoding="UTF-8"?>
<svg xmlns="http://www.w3.org/2000/svg" xmlns:xlink="http://www.w3.org/1999/xlink" width="48px" height="48px" viewBox="0 0 48 48" version="1.1">
<g id="surface1">
<path style=" stroke:none;fill-rule:nonzero;fill:rgb(90.980392%,46.27451%,17.647059%);fill-opacity:1;" d="M 22.6875 32.429688 L 25.3125 32.429688 L 25.3125 25.167969 L 31.921875 25.167969 L 31.921875 22.589844 L 25.3125 22.589844 L 25.3125 15.328125 L 22.6875 15.328125 L 22.6875 22.589844 L 16.160156 22.589844 L 16.160156 25.167969 L 22.6875 25.167969 Z M 22.6875 32.429688 "/>
<path style=" stroke:none;fill-rule:nonzero;fill:rgb(78.039216%,12.54902%,21.568627%);fill-opacity:1;" d="M 10.507812 42.917969 L 12.734375 42.917969 L 12.734375 36.464844 L 18.625 36.464844 L 18.625 34.445312 L 12.734375 34.445312 L 12.734375 27.914062 L 10.507812 27.914062 L 10.507812 34.445312 L 4.617188 34.445312 L 4.617188 36.464844 L 10.507812 36.464844 Z M 10.507812 42.917969 "/>
<path style=" stroke:none;fill-rule:nonzero;fill:rgb(35.686275%,52.941176%,60.784314%);fill-opacity:1;" d="M 35.265625 19.605469 L 37.492188 19.605469 L 37.492188 13.148438 L 43.460938 13.148438 L 43.460938 11.214844 L 37.492188 11.214844 L 37.492188 4.679688 L 35.265625 4.679688 L 35.265625 11.214844 L 29.375 11.214844 L 29.375 13.148438 L 35.265625 13.148438 Z M 35.265625 19.605469 "/>
<path style=" stroke:none;fill-rule:nonzero;fill:rgb(36.078431%,40%,57.254902%);fill-opacity:1;" d="M 23.085938 48 L 24.996094 48 L 24.996094 43.398438 L 29.054688 43.398438 L 29.054688 41.707031 L 24.996094 41.707031 L 24.996094 37.109375 L 23.085938 37.109375 L 23.085938 41.707031 L 19.105469 41.707031 L 19.105469 43.398438 L 23.085938 43.398438 Z M 23.085938 48 "/>
<path style=" stroke:none;fill-rule:nonzero;fill:rgb(92.156863%,56.862745%,16.078431%);fill-opacity:1;" d="M 10.585938 19.605469 L 12.65625 19.605469 L 12.65625 13.070312 L 18.625 13.070312 L 18.625 11.214844 L 12.65625 11.214844 L 12.65625 4.679688 L 10.585938 4.679688 L 10.585938 11.214844 L 4.617188 11.214844 L 4.617188 13.070312 L 10.585938 13.070312 Z M 10.585938 19.605469 "/>
<path style=" stroke:none;fill-rule:nonzero;fill:rgb(36.078431%,40%,57.254902%);fill-opacity:1;" d="M 42.03125 29.285156 L 43.941406 29.285156 L 43.941406 24.765625 L 48 24.765625 L 48 22.992188 L 43.941406 22.992188 L 43.941406 18.472656 L 42.03125 18.472656 L 42.03125 22.992188 L 38.050781 22.992188 L 38.050781 24.765625 L 42.03125 24.765625 Z M 42.03125 29.285156 "/>
<path style=" stroke:none;fill-rule:evenodd;fill:rgb(12.156863%,27.058824%,49.411765%);fill-opacity:1;" d="M 35.265625 42.917969 L 37.492188 42.917969 L 37.492188 36.464844 L 43.460938 36.464844 L 43.460938 34.445312 L 37.492188 34.445312 L 37.492188 27.914062 L 35.265625 27.914062 L 35.265625 34.445312 L 29.375 34.445312 L 29.375 36.464844 L 35.265625 36.464844 Z M 35.265625 42.917969 "/>
<path style=" stroke:none;fill-rule:nonzero;fill:rgb(44.313725%,60%,65.098039%);fill-opacity:1;" d="M 28.734375 5.808594 L 28.734375 4.4375 L 24.757812 4.4375 L 24.757812 0 L 23.324219 0 L 23.324219 4.4375 L 19.34375 4.4375 L 19.34375 5.808594 L 23.324219 5.808594 L 23.324219 10.246094 L 24.757812 10.246094 L 24.757812 5.808594 Z M 3.980469 28.960938 L 5.414062 28.960938 L 5.414062 24.523438 L 9.394531 24.523438 L 9.394531 23.152344 L 5.414062 23.152344 L 5.414062 18.796875 L 3.980469 18.796875 L 3.980469 23.152344 L 0 23.152344 L 0 24.605469 L 3.980469 24.523438 Z M 3.980469 28.960938 "/>
</g>
</svg>
