<?xml version="1.0" encoding="UTF-8"?>
<svg xmlns="http://www.w3.org/2000/svg" xmlns:xlink="http://www.w3.org/1999/xlink" width="48px" height="48px" viewBox="0 0 48 48" version="1.1">
<g id="surface1">
<path style=" stroke:none;fill-rule:nonzero;fill:rgb(98.039216%,82.352941%,30.196078%);fill-opacity:1;" d="M 48 24 C 48 37.253906 37.253906 48 24 48 C 10.746094 48 0 37.253906 0 24 C 0 10.746094 10.746094 0 24 0 C 37.253906 0 48 10.746094 48 24 Z M 48 24 "/>
<path style=" stroke:none;fill-rule:nonzero;fill:rgb(92.941176%,72.54902%,21.568627%);fill-opacity:1;" d="M 41.089844 39.53125 C 41.089844 38.785156 33.4375 38.183594 24 38.183594 C 14.5625 38.183594 6.910156 38.785156 6.910156 39.53125 C 6.910156 40.273438 14.5625 40.875 24 40.875 C 33.4375 40.875 41.089844 40.273438 41.089844 39.53125 Z M 41.089844 39.53125 "/>
<path style=" stroke:none;fill-rule:nonzero;fill:rgb(40%,40%,40%);fill-opacity:1;" d="M 6.1875 6.300781 L 41.8125 6.300781 C 42.984375 6.300781 43.941406 7.261719 43.941406 8.429688 L 43.941406 30.378906 L 4.058594 30.378906 L 4.058594 8.429688 C 4.058594 7.261719 5.015625 6.300781 6.1875 6.300781 Z M 6.1875 6.300781 "/>
<path style=" stroke:none;fill-rule:nonzero;fill:rgb(86.27451%,89.019608%,85.882353%);fill-opacity:1;" d="M 5.503906 28.933594 L 42.496094 28.933594 L 42.496094 8.429688 C 42.496094 8.058594 42.1875 7.746094 41.8125 7.746094 L 6.1875 7.746094 C 5.8125 7.746094 5.503906 8.058594 5.503906 8.429688 Z M 5.503906 28.933594 "/>
<path style=" stroke:none;fill-rule:nonzero;fill:rgb(100%,100%,100%);fill-opacity:1;" d="M 43.941406 30.378906 L 43.941406 32.707031 C 43.941406 33.875 42.886719 34.832031 41.597656 34.832031 L 6.402344 34.832031 C 5.113281 34.832031 4.058594 33.875 4.058594 32.707031 L 4.058594 30.378906 Z M 43.941406 30.378906 "/>
<path style=" stroke:none;fill-rule:nonzero;fill:rgb(71.372549%,71.372549%,72.156863%);fill-opacity:1;" d="M 24.734375 32.511719 C 24.734375 32.917969 24.40625 33.246094 24 33.246094 C 23.59375 33.246094 23.265625 32.917969 23.265625 32.511719 C 23.265625 32.109375 23.59375 31.78125 24 31.78125 C 24.40625 31.78125 24.734375 32.109375 24.734375 32.511719 Z M 24.734375 32.511719 "/>
<path style=" stroke:none;fill-rule:nonzero;fill:rgb(76.078431%,76.078431%,76.862745%);fill-opacity:1;" d="M 28.601562 38.183594 L 31.984375 39.265625 L 16.015625 39.265625 L 18.746094 38.183594 L 18.746094 34.832031 L 28.601562 34.832031 Z M 28.601562 38.183594 "/>
<path style=" stroke:none;fill-rule:nonzero;fill:rgb(92.54902%,94.117647%,94.509804%);fill-opacity:1;" d="M 18.746094 38.183594 L 28.601562 38.183594 L 31.984375 39.265625 L 31.984375 39.734375 L 16.015625 39.734375 L 16.015625 39.265625 Z M 18.746094 38.183594 "/>
<path style=" stroke:none;fill-rule:nonzero;fill:rgb(56.862745%,56.862745%,56.862745%);fill-opacity:1;" d="M 18.746094 34.832031 L 28.601562 34.832031 L 28.601562 38.238281 Z M 18.746094 34.832031 "/>
<path style=" stroke:none;fill-rule:nonzero;fill:rgb(100%,100%,100%);fill-opacity:1;" d="M 14.019531 10.15625 L 36.949219 10.15625 C 37.308594 10.15625 37.605469 10.453125 37.605469 10.8125 L 37.605469 28.933594 L 10.394531 28.933594 L 10.394531 10.8125 C 10.394531 10.453125 10.691406 10.15625 11.050781 10.15625 Z M 14.019531 10.15625 "/>
<path style=" stroke:none;fill-rule:nonzero;fill:rgb(50.980392%,50.980392%,50.980392%);fill-opacity:1;" d="M 11.050781 10.15625 L 36.949219 10.15625 C 37.308594 10.15625 37.605469 10.453125 37.605469 10.8125 L 37.605469 12.121094 L 10.394531 12.121094 L 10.394531 10.8125 C 10.394531 10.453125 10.691406 10.15625 11.050781 10.15625 Z M 11.050781 10.15625 "/>
<path style=" stroke:none;fill-rule:nonzero;fill:rgb(100%,100%,100%);fill-opacity:1;" d="M 22.507812 10.835938 L 35.652344 10.835938 C 35.75 10.835938 35.828125 10.914062 35.828125 11.011719 L 35.828125 11.335938 C 35.828125 11.433594 35.75 11.511719 35.652344 11.511719 L 22.507812 11.511719 C 22.410156 11.511719 22.332031 11.433594 22.332031 11.335938 L 22.332031 11.011719 C 22.332031 10.914062 22.410156 10.835938 22.507812 10.835938 Z M 22.507812 10.835938 "/>
<path style=" stroke:none;fill-rule:nonzero;fill:rgb(12.941176%,81.568627%,76.470588%);fill-opacity:1;" d="M 11.703125 10.71875 C 11.910156 10.71875 12.078125 10.886719 12.078125 11.09375 C 12.078125 11.304688 11.910156 11.472656 11.703125 11.472656 C 11.492188 11.472656 11.324219 11.304688 11.324219 11.09375 C 11.324219 10.886719 11.492188 10.71875 11.703125 10.71875 Z M 11.703125 10.71875 "/>
<path style=" stroke:none;fill-rule:nonzero;fill:rgb(98.039216%,82.352941%,30.196078%);fill-opacity:1;" d="M 13.1875 10.71875 C 13.398438 10.71875 13.566406 10.886719 13.566406 11.09375 C 13.566406 11.304688 13.398438 11.472656 13.1875 11.472656 C 12.980469 11.472656 12.8125 11.304688 12.8125 11.09375 C 12.8125 10.886719 12.980469 10.71875 13.1875 10.71875 Z M 13.1875 10.71875 "/>
<path style=" stroke:none;fill-rule:nonzero;fill:rgb(100%,35.686275%,38.431373%);fill-opacity:1;" d="M 14.675781 10.71875 C 14.886719 10.71875 15.054688 10.886719 15.054688 11.09375 C 15.054688 11.304688 14.886719 11.472656 14.675781 11.472656 C 14.46875 11.472656 14.300781 11.304688 14.300781 11.09375 C 14.300781 10.886719 14.46875 10.71875 14.675781 10.71875 Z M 14.675781 10.71875 "/>
<path style=" stroke:none;fill-rule:nonzero;fill:rgb(92.54902%,94.117647%,94.509804%);fill-opacity:1;" d="M 28.589844 18.019531 C 28.589844 20.554688 26.535156 22.609375 24 22.609375 C 21.464844 22.609375 19.410156 20.554688 19.410156 18.019531 C 19.410156 15.484375 21.464844 13.429688 24 13.429688 C 26.535156 13.429688 28.589844 15.484375 28.589844 18.019531 Z M 28.589844 18.019531 "/>
<path style=" stroke:none;fill-rule:nonzero;fill:rgb(92.54902%,94.117647%,94.509804%);fill-opacity:1;" d="M 26.296875 23.027344 C 26.296875 25.5625 24.242188 27.617188 21.707031 27.617188 C 19.175781 27.617188 17.117188 25.5625 17.117188 23.027344 C 17.117188 20.492188 19.175781 18.4375 21.707031 18.4375 C 24.242188 18.4375 26.296875 20.492188 26.296875 23.027344 Z M 26.296875 23.027344 "/>
<path style=" stroke:none;fill-rule:nonzero;fill:rgb(92.54902%,94.117647%,94.509804%);fill-opacity:1;" d="M 30.882812 23.027344 C 30.882812 25.5625 28.824219 27.617188 26.292969 27.617188 C 23.757812 27.617188 21.703125 25.5625 21.703125 23.027344 C 21.703125 20.492188 23.757812 18.4375 26.292969 18.4375 C 28.824219 18.4375 30.882812 20.492188 30.882812 23.027344 Z M 30.882812 23.027344 "/>
<path style=" stroke:none;fill-rule:nonzero;fill:rgb(40%,40%,40%);fill-opacity:1;" d="M 26.195312 22.050781 C 25.917969 20.769531 25.101562 19.6875 24 19.050781 C 22.898438 19.6875 22.082031 20.769531 21.804688 22.050781 C 22.457031 22.40625 23.203125 22.609375 24 22.609375 C 24.792969 22.609375 25.542969 22.40625 26.195312 22.050781 Z M 26.195312 22.050781 "/>
<path style=" stroke:none;fill-rule:nonzero;fill:rgb(12.941176%,81.568627%,76.470588%);fill-opacity:1;" d="M 24 19.050781 C 25.101562 19.6875 25.917969 20.769531 26.195312 22.050781 C 27.347656 21.421875 28.199219 20.316406 28.484375 18.996094 C 27.835938 18.640625 27.085938 18.4375 26.289062 18.4375 C 25.457031 18.4375 24.675781 18.660156 24 19.050781 Z M 24 19.050781 "/>
<path style=" stroke:none;fill-rule:nonzero;fill:rgb(98.039216%,82.352941%,30.196078%);fill-opacity:1;" d="M 21.804688 22.050781 C 22.082031 20.769531 22.894531 19.6875 24 19.050781 C 23.324219 18.660156 22.542969 18.4375 21.707031 18.4375 C 20.914062 18.4375 20.164062 18.640625 19.515625 18.996094 C 19.800781 20.316406 20.652344 21.421875 21.804688 22.050781 Z M 21.804688 22.050781 "/>
<path style=" stroke:none;fill-rule:nonzero;fill:rgb(100%,35.686275%,38.431373%);fill-opacity:1;" d="M 24 22.609375 C 23.207031 22.609375 22.457031 22.40625 21.804688 22.050781 C 21.738281 22.367188 21.699219 22.691406 21.699219 23.027344 C 21.699219 24.726562 22.625 26.210938 24 27.007812 C 25.375 26.210938 26.296875 24.726562 26.296875 23.027344 C 26.296875 22.691406 26.261719 22.367188 26.195312 22.050781 C 25.542969 22.40625 24.796875 22.609375 24 22.609375 Z M 24 22.609375 "/>
</g>
</svg>
